<svg width="239" height="214" viewBox="0 0 239 214" fill="none" xmlns="http://www.w3.org/2000/svg">
<path d="M172.394 65.9511L170.545 63.8677C170.972 63.6959 171.337 63.4354 171.629 63.0761C172.077 62.4927 182.847 48.9302 182.847 36.2063C182.847 35.8886 182.452 4.00316 147.446 0.466696C146.759 0.310447 131.17 -2.46039 119.347 7.56565C115.535 4.56045 107.676 -0.351011 91.4829 0.414613C58.0662 3.63336 55.8474 35.7323 55.8474 36.1021C55.8162 41.5761 56.6079 46.9354 58.2277 52.1698C59.8422 57.4094 62.2068 62.2844 65.3162 66.7948C64.462 67.9094 63.811 69.1334 63.3579 70.4667C63.0297 71.4198 62.8474 72.4042 62.811 73.4198C62.7745 74.4302 62.8839 75.425 63.1391 76.4042C63.3943 77.3782 63.7902 78.3 64.3162 79.1646C64.8474 80.0292 65.4881 80.7948 66.2433 81.4719C67.2224 82.5396 68.3787 83.3729 69.7016 83.9719C71.0245 84.5657 72.4099 84.8782 73.8631 84.9042H74.8422C74.7016 86.5136 74.9308 88.0657 75.5193 89.5709C76.1131 91.0761 77.0037 92.3677 78.2016 93.4563C79.186 94.5292 80.3422 95.3625 81.6704 95.9563C82.9985 96.5552 84.3943 96.8625 85.8474 96.8834H86.8006C86.7224 98.4615 86.9829 99.9823 87.5818 101.441C88.186 102.899 89.0714 104.165 90.2433 105.227C91.2225 106.295 92.3735 107.128 93.6964 107.722C95.0193 108.321 96.41 108.633 97.8631 108.659H98.8162C98.6964 110.264 98.9308 111.821 99.5245 113.321C100.118 114.821 101.009 116.118 102.202 117.211C103.181 118.279 104.332 119.113 105.655 119.706C106.983 120.305 108.368 120.613 109.821 120.639C111.337 120.586 112.79 120.264 114.186 119.675C115.582 119.081 116.827 118.258 117.915 117.211L119.238 115.863L120.722 117.342C121.78 118.389 122.993 119.206 124.368 119.795C125.738 120.383 127.17 120.701 128.66 120.748C130.118 120.732 131.514 120.425 132.847 119.836C134.181 119.243 135.342 118.415 136.332 117.342C137.519 116.243 138.41 114.941 138.998 113.435C139.587 111.93 139.821 110.373 139.691 108.764H140.644C142.129 108.764 143.545 108.472 144.905 107.878C146.264 107.284 147.446 106.446 148.452 105.357C149.65 104.274 150.545 102.977 151.134 101.477C151.722 99.9719 151.952 98.4146 151.811 96.8052C152.603 96.8365 153.389 96.7792 154.176 96.649C154.957 96.5136 155.717 96.3 156.457 96.0136C157.196 95.7219 157.894 95.3573 158.561 94.925C159.222 94.4927 159.837 93.9979 160.4 93.4354C160.962 92.8782 161.462 92.2688 161.894 91.6073C162.332 90.9459 162.696 90.2427 162.988 89.5084C163.28 88.774 163.493 88.0136 163.629 87.2323C163.769 86.4511 163.821 85.6698 163.795 84.8782C165.394 84.9771 166.931 84.7271 168.415 84.1334C169.9 83.5344 171.181 82.649 172.264 81.4719C173.009 80.8 173.639 80.0396 174.16 79.1802C174.686 78.3261 175.071 77.4146 175.327 76.4511C175.587 75.4823 175.696 74.4979 175.665 73.4979C175.634 72.4979 175.462 71.5188 175.144 70.5709C174.556 68.8365 173.639 67.2948 172.394 65.9511ZM121.332 12.8469C131.306 3.08128 146.306 5.7219 146.676 5.77399C177.077 8.75836 177.556 35.0969 177.556 36.2063C177.556 47.0552 167.582 59.6438 167.498 59.774C167.4 59.8886 167.311 60.0136 167.238 60.1438L132.577 21.1594H132.415C132.389 21.0084 132.321 20.8729 132.207 20.7636H129.108L128.952 20.899L109.53 40.2948C109.269 40.5865 108.983 40.8417 108.67 41.0709C108.358 41.3 108.025 41.4927 107.67 41.649C107.316 41.8052 106.946 41.925 106.566 42.0084C106.186 42.0865 105.806 42.1282 105.415 42.1282C105.03 42.1282 104.644 42.0865 104.264 42.0084C103.884 41.925 103.519 41.8052 103.165 41.649C102.811 41.4927 102.472 41.3 102.16 41.0709C101.847 40.8417 101.561 40.5865 101.301 40.2948C101.014 40.0396 100.764 39.7532 100.535 39.4407C100.311 39.1282 100.123 38.7948 99.9672 38.4407C99.811 38.0865 99.6912 37.7271 99.6131 37.3469C99.535 36.9719 99.4933 36.5917 99.4933 36.2063C99.4933 35.8209 99.535 35.4407 99.6131 35.0657C99.6912 34.6854 99.811 34.3209 99.9672 33.9719C100.123 33.6177 100.311 33.2844 100.535 32.9719C100.764 32.6594 101.014 32.3729 101.301 32.1125L121.332 12.8469ZM78.2016 77.6438C76.9777 78.7792 75.5297 79.4042 73.8631 79.5188C72.3006 79.4511 71.0037 78.8261 69.9724 77.6438C69.686 77.3834 69.4256 77.1021 69.2016 76.7844C68.9724 76.4719 68.7797 76.1386 68.6183 75.7896C68.462 75.4354 68.3422 75.0657 68.2589 74.6907C68.1808 74.3104 68.1391 73.925 68.1391 73.5396C68.1391 73.1542 68.1808 72.7688 68.2589 72.3938C68.3422 72.0136 68.462 71.649 68.6183 71.2948C68.7797 70.9407 68.9724 70.6073 69.2016 70.2948C69.4256 69.9823 69.686 69.6959 69.9724 69.4354L81.9099 57.5032C83.1287 56.3625 84.5766 55.7323 86.2485 55.6073C87.811 55.6854 89.1183 56.3104 90.16 57.4771C90.4464 57.7375 90.7016 58.0188 90.9308 58.3313C91.1547 58.6386 91.3474 58.9667 91.5037 59.3157C91.6652 59.6698 91.785 60.0292 91.8683 60.4042C91.9464 60.7792 91.9933 61.1542 91.9933 61.5396C91.9985 61.925 91.962 62.3 91.8891 62.6802C91.811 63.0552 91.7016 63.4198 91.5506 63.7688C91.3995 64.1229 91.212 64.4563 90.9933 64.7688C90.7745 65.0865 90.5245 65.3729 90.2433 65.6334L78.2016 77.6438ZM85.8474 91.4511C84.2797 91.3782 82.9724 90.7532 81.936 89.5761C81.6495 89.3157 81.3943 89.024 81.1704 88.7115C80.9412 88.399 80.7537 88.0657 80.5974 87.7115C80.4412 87.3573 80.3214 86.9927 80.2433 86.6177C80.1652 86.2375 80.1235 85.8573 80.1235 85.4719C80.1235 85.0865 80.1652 84.7011 80.2433 84.3261C80.3214 83.9459 80.4412 83.5813 80.5974 83.2271C80.7537 82.8729 80.9412 82.5396 81.1704 82.2271C81.3943 81.9146 81.6495 81.6282 81.936 81.3677L93.9204 69.4354C95.1235 68.3261 96.5454 67.7011 98.1808 67.5604C99.7433 67.6334 101.04 68.2584 102.066 69.4354C102.358 69.6959 102.613 69.9823 102.837 70.2948C103.066 70.6073 103.259 70.9407 103.415 71.2948C103.571 71.649 103.691 72.0136 103.769 72.3938C103.853 72.7688 103.889 73.1542 103.889 73.5396C103.889 73.925 103.853 74.3104 103.769 74.6854C103.691 75.0657 103.571 75.4302 103.415 75.7844C103.259 76.1386 103.066 76.4719 102.837 76.7844C102.613 77.0969 102.358 77.3834 102.066 77.6438L90.2433 89.5761C88.9933 90.7063 87.5297 91.3313 85.8474 91.4511ZM102.15 101.503C100.92 102.639 99.4777 103.274 97.811 103.404C96.2433 103.326 94.9464 102.691 93.9204 101.503C93.6339 101.243 93.3735 100.956 93.1495 100.644C92.9204 100.331 92.7329 99.9979 92.5714 99.6438C92.4152 99.2896 92.3006 98.925 92.2172 98.5448C92.1391 98.1698 92.0975 97.7844 92.0975 97.399C92.0975 97.0136 92.1391 96.6334 92.2172 96.2532C92.3006 95.8729 92.4152 95.5084 92.5714 95.1542C92.7329 94.8 92.9204 94.4667 93.1495 94.1542C93.3735 93.8417 93.6339 93.5552 93.9204 93.2948L105.879 81.4719C107.092 80.3365 108.53 79.7115 110.191 79.5969C111.748 79.675 113.035 80.3 114.056 81.4719C114.342 81.7323 114.597 82.0188 114.827 82.3313C115.051 82.6438 115.243 82.9771 115.4 83.3313C115.556 83.6854 115.676 84.05 115.754 84.4302C115.837 84.8052 115.879 85.1907 115.879 85.5761C115.879 85.9615 115.837 86.3469 115.754 86.7219C115.676 87.1021 115.556 87.4667 115.4 87.8209C115.243 88.175 115.051 88.5084 114.827 88.8209C114.597 89.1334 114.342 89.4198 114.056 89.6802L102.15 101.503ZM114.056 113.435C112.821 114.581 111.368 115.211 109.691 115.336C108.123 115.264 106.827 114.639 105.801 113.461C105.514 113.201 105.254 112.915 105.03 112.602C104.801 112.29 104.608 111.956 104.452 111.602C104.295 111.248 104.176 110.883 104.097 110.503C104.019 110.128 103.978 109.743 103.978 109.357C103.978 108.972 104.019 108.586 104.097 108.211C104.176 107.831 104.295 107.467 104.452 107.113C104.608 106.758 104.801 106.425 105.03 106.113C105.254 105.8 105.514 105.514 105.801 105.253L117.759 93.2948C118.978 92.1698 120.415 91.5448 122.071 91.4198C123.629 91.5032 124.926 92.1282 125.962 93.2948C126.702 93.925 127.228 94.6959 127.54 95.6177C127.853 96.5344 127.91 97.4667 127.707 98.4146C127.644 98.5604 127.603 98.7115 127.577 98.8677C127.238 99.8677 126.702 100.748 125.962 101.503L114.056 113.435ZM132.577 113.435C132.316 113.722 132.03 113.982 131.717 114.206C131.4 114.435 131.066 114.628 130.712 114.784C130.358 114.946 129.993 115.066 129.613 115.144C129.233 115.227 128.847 115.264 128.462 115.264C128.071 115.264 127.691 115.227 127.311 115.144C126.931 115.066 126.561 114.946 126.207 114.784C125.853 114.628 125.519 114.435 125.207 114.206C124.894 113.982 124.608 113.722 124.347 113.435L122.889 111.982L129.931 105.227C130.384 104.774 130.79 104.279 131.144 103.748L132.733 105.331C133.019 105.597 133.269 105.889 133.493 106.206C133.717 106.524 133.905 106.863 134.056 107.222C134.207 107.581 134.321 107.951 134.394 108.331C134.467 108.711 134.498 109.097 134.493 109.482C134.483 109.873 134.436 110.258 134.347 110.633C134.259 111.014 134.134 111.378 133.967 111.727C133.806 112.081 133.603 112.409 133.368 112.722C133.134 113.029 132.868 113.31 132.577 113.566V113.435ZM168.53 77.7479C168.275 78.0396 167.988 78.2948 167.67 78.524C167.358 78.7532 167.025 78.9459 166.67 79.1021C166.316 79.2584 165.946 79.3782 165.571 79.4615C165.191 79.5396 164.806 79.5813 164.42 79.5813C164.03 79.5813 163.644 79.5396 163.264 79.4615C162.889 79.3782 162.519 79.2584 162.165 79.1021C161.811 78.9459 161.478 78.7532 161.165 78.524C160.847 78.2948 160.561 78.0396 160.306 77.7479L151.228 68.6959C150.983 68.4511 150.696 68.2584 150.373 68.1229C150.045 67.9875 149.712 67.9198 149.358 67.9198C149.009 67.9198 148.67 67.9823 148.347 68.1177C148.025 68.2479 147.738 68.4407 147.488 68.6854C147.238 68.9302 147.045 69.2167 146.91 69.5396C146.775 69.8625 146.707 70.2011 146.707 70.55C146.702 70.899 146.769 71.2375 146.9 71.5604C147.035 71.8834 147.222 72.1698 147.472 72.4198L156.545 81.4719C156.873 81.7219 157.165 82.0032 157.431 82.3157C157.696 82.6334 157.926 82.9667 158.118 83.3313C158.311 83.6907 158.462 84.0709 158.577 84.4615C158.691 84.8573 158.759 85.2584 158.79 85.6698C158.816 86.0761 158.801 86.4823 158.743 86.8886C158.686 87.2948 158.582 87.6907 158.441 88.0761C158.301 88.4563 158.118 88.8261 157.9 89.1698C157.681 89.5136 157.426 89.8365 157.139 90.1282C156.847 90.4198 156.535 90.6802 156.191 90.9042C155.847 91.1334 155.488 91.3209 155.103 91.4667C154.722 91.6177 154.327 91.7271 153.92 91.7948C153.519 91.8573 153.108 91.8834 152.702 91.8625C152.29 91.8417 151.884 91.7792 151.488 91.675C151.092 91.5709 150.712 91.425 150.342 91.2375C149.978 91.05 149.634 90.8313 149.316 90.5709C148.998 90.3157 148.707 90.024 148.452 89.7063L139.347 80.6282C139.103 80.3834 138.816 80.1907 138.493 80.0604C138.17 79.925 137.832 79.8573 137.483 79.8573C137.134 79.8573 136.795 79.925 136.472 80.0604C136.15 80.1907 135.868 80.3834 135.618 80.6282C135.103 81.1438 134.847 81.7688 134.853 82.5032C134.847 83.2323 135.103 83.8573 135.618 84.3729L144.717 93.4302C144.978 93.7011 145.207 93.9927 145.405 94.3104C145.608 94.6282 145.775 94.9615 145.91 95.3104C146.051 95.6594 146.15 96.0136 146.217 96.3834C146.285 96.7532 146.311 97.1229 146.306 97.4979C146.301 97.8729 146.259 98.2427 146.186 98.6073C146.108 98.9771 145.993 99.3313 145.847 99.675C145.702 100.019 145.525 100.347 145.316 100.659C145.108 100.967 144.868 101.258 144.603 101.519C144.337 101.784 144.051 102.024 143.738 102.232C143.426 102.441 143.097 102.618 142.754 102.764C142.41 102.909 142.051 103.019 141.686 103.097C141.316 103.175 140.946 103.217 140.571 103.222C140.196 103.227 139.821 103.196 139.457 103.128C139.087 103.066 138.728 102.961 138.373 102.826C138.025 102.691 137.691 102.524 137.373 102.321C137.061 102.123 136.764 101.894 136.493 101.639L133.264 98.4146C133.436 96.7636 133.228 95.1594 132.644 93.6021C132.056 92.0448 131.15 90.7063 129.931 89.5761C128.946 88.5032 127.79 87.6698 126.462 87.0709C125.134 86.4771 123.738 86.1646 122.285 86.1438H121.332C121.452 84.5344 121.212 82.9823 120.618 81.4823C120.025 79.9823 119.134 78.6854 117.941 77.5917C116.962 76.524 115.811 75.6907 114.488 75.0917C113.165 74.4979 111.775 74.1854 110.321 74.1594H109.373C109.472 72.55 109.217 70.9927 108.608 69.4979C107.993 68.0032 107.082 66.7167 105.879 65.6334C104.884 64.5709 103.717 63.7479 102.379 63.1646C101.04 62.5813 99.6391 62.2896 98.1808 62.2844C97.8527 62.2584 97.5245 62.2584 97.2016 62.2844C97.3266 60.6698 97.0975 59.1125 96.5089 57.6073C95.9204 56.1021 95.0297 54.8052 93.8422 53.7063C92.8579 52.6334 91.7016 51.8 90.3735 51.2011C89.0454 50.6073 87.6495 50.2948 86.1912 50.274C84.686 50.3313 83.2329 50.6594 81.8422 51.2479C80.4516 51.8417 79.212 52.6594 78.1235 53.7063L69.0766 62.9979C66.5297 59.0604 64.5818 54.8469 63.2277 50.3625C61.8787 45.8729 61.1808 41.2844 61.1391 36.6021C61.1391 35.4667 63.1756 8.67503 91.8579 5.93024C105.087 5.32607 111.884 8.86253 115.431 11.3417L97.5454 28.6021C97.0089 29.1073 96.5297 29.6594 96.1079 30.2636C95.686 30.8625 95.3266 31.4979 95.035 32.175C94.7433 32.8469 94.5245 33.5448 94.3735 34.2636C94.2277 34.9823 94.1495 35.7115 94.1495 36.4407C94.1495 37.175 94.2277 37.9042 94.3735 38.6229C94.5245 39.3417 94.7433 40.0396 95.035 40.7115C95.3266 41.3886 95.686 42.024 96.1079 42.6229C96.5297 43.2271 97.0089 43.7792 97.5454 44.2844C98.0506 44.8157 98.6027 45.2948 99.2068 45.7167C99.8058 46.1386 100.446 46.4927 101.123 46.7844C101.801 47.0761 102.498 47.2948 103.217 47.4459C103.936 47.5917 104.665 47.6698 105.405 47.6698C106.139 47.6698 106.868 47.5917 107.587 47.4459C108.311 47.2948 109.009 47.0761 109.681 46.7844C110.358 46.4927 110.998 46.1386 111.597 45.7167C112.202 45.2948 112.754 44.8157 113.259 44.2844L130.592 27.0188L168.53 69.7792C168.801 70.0396 169.04 70.3209 169.248 70.6282C169.462 70.9354 169.639 71.2584 169.785 71.6021C169.931 71.9407 170.04 72.2948 170.113 72.6594C170.191 73.024 170.228 73.3938 170.228 73.7636C170.228 74.1386 170.191 74.5032 170.113 74.8677C170.04 75.2323 169.931 75.5865 169.785 75.9302C169.639 76.274 169.462 76.5969 169.248 76.9042C169.04 77.2115 168.801 77.4927 168.53 77.7479Z" fill="black"/>
<path d="M33.863 180.2C31.79 180.2 29.8317 179.929 27.988 179.387C26.1546 178.835 24.6598 178.085 23.5088 177.137C22.8838 176.695 22.5713 176.054 22.5713 175.221C22.5713 174.653 22.738 174.158 23.0713 173.741C23.415 173.325 23.8213 173.116 24.2796 173.116C24.7484 173.116 25.3005 173.304 25.9255 173.679C27.0765 174.512 28.2848 175.116 29.5505 175.491C30.8109 175.866 32.2067 176.054 33.738 176.054C35.6963 176.054 37.1963 175.715 38.238 175.033C39.29 174.356 39.8213 173.356 39.8213 172.033C39.8213 171.023 39.3265 170.236 38.3421 169.679C37.3682 169.127 35.738 168.596 33.4463 168.096C31.0817 167.585 29.1598 166.991 27.6755 166.325C26.2015 165.648 25.0921 164.783 24.3421 163.741C23.5921 162.689 23.2171 161.356 23.2171 159.741C23.2171 158.09 23.6859 156.606 24.6338 155.283C25.5765 153.965 26.8838 152.939 28.5505 152.2C30.2275 151.465 32.1182 151.096 34.2171 151.096C38.0505 151.096 41.1755 152.116 43.5921 154.158C43.9359 154.45 44.1859 154.741 44.3421 155.033C44.4932 155.314 44.5713 155.669 44.5713 156.096C44.5713 156.653 44.3942 157.137 44.0505 157.554C43.7171 157.971 43.3265 158.179 42.8838 158.179C42.6025 158.179 42.3473 158.137 42.113 158.054C41.889 157.971 41.5921 157.825 41.2171 157.616C40.1182 156.814 39.0505 156.215 38.0088 155.825C36.9775 155.439 35.7171 155.241 34.2171 155.241C32.3942 155.241 30.9515 155.611 29.8838 156.346C28.8265 157.085 28.3005 158.111 28.3005 159.429C28.3005 160.528 28.764 161.377 29.6963 161.971C30.639 162.554 32.238 163.106 34.488 163.616C36.889 164.158 38.8317 164.757 40.3213 165.408C41.8057 166.064 42.9463 166.903 43.738 167.929C44.5296 168.945 44.9255 170.215 44.9255 171.741C44.9255 173.408 44.4567 174.882 43.5296 176.158C42.613 177.439 41.3109 178.429 39.6338 179.137C37.9515 179.846 36.0296 180.2 33.863 180.2Z" fill="black"/>
<path d="M55.9183 180.096C55.137 180.096 54.512 179.851 54.0433 179.366C53.5693 178.882 53.335 178.252 53.335 177.471V153.825C53.335 153.049 53.5693 152.429 54.0433 151.971C54.512 151.502 55.137 151.262 55.9183 151.262C56.7204 151.262 57.3558 151.502 57.8141 151.971C58.2829 152.429 58.5225 153.049 58.5225 153.825V177.471C58.5225 178.252 58.2829 178.882 57.8141 179.366C57.3558 179.851 56.7204 180.096 55.9183 180.096Z" fill="black"/>
<path d="M70.8535 180.096C70.0722 180.096 69.4472 179.856 68.9785 179.387C68.5045 178.919 68.2701 178.278 68.2701 177.471V153.908C68.2701 153.132 68.4889 152.528 68.9368 152.096C69.3795 151.669 69.9889 151.45 70.7701 151.45H80.666C83.7076 151.45 86.067 152.215 87.7493 153.741C89.442 155.257 90.291 157.382 90.291 160.116C90.291 162.856 89.442 164.986 87.7493 166.512C86.067 168.044 83.7076 168.804 80.666 168.804H73.4576V177.471C73.4576 178.278 73.2181 178.919 72.7493 179.387C72.291 179.856 71.6556 180.096 70.8535 180.096ZM80.0201 164.825C83.5878 164.825 85.3743 163.273 85.3743 160.158C85.3743 157.049 83.5878 155.491 80.0201 155.491H73.4576V164.825H80.0201Z" fill="black"/>
<path d="M100.961 179.846C100.18 179.846 99.5704 179.632 99.1277 179.2C98.6798 178.773 98.4611 178.169 98.4611 177.387V153.908C98.4611 153.132 98.6798 152.528 99.1277 152.096C99.5704 151.669 100.18 151.45 100.961 151.45H115.503C116.279 151.45 116.878 151.627 117.294 151.971C117.721 152.32 117.94 152.82 117.94 153.471C117.94 154.137 117.721 154.653 117.294 155.012C116.878 155.377 116.279 155.554 115.503 155.554H103.524V163.366H114.69C115.466 163.366 116.07 163.549 116.503 163.908C116.93 164.257 117.149 164.762 117.149 165.429C117.149 166.07 116.93 166.57 116.503 166.929C116.07 167.278 115.466 167.45 114.69 167.45H103.524V175.741H115.503C116.279 175.741 116.878 175.924 117.294 176.283C117.721 176.648 117.94 177.158 117.94 177.825C117.94 178.481 117.721 178.981 117.294 179.325C116.878 179.674 116.279 179.846 115.503 179.846H100.961Z" fill="black"/>
<path d="M147.294 151.262C148.044 151.262 148.638 151.502 149.086 151.971C149.528 152.429 149.752 153.049 149.752 153.825V177.471C149.752 178.252 149.523 178.882 149.065 179.366C148.606 179.851 148.013 180.096 147.294 180.096C146.429 180.096 145.773 179.783 145.315 179.158L130.627 160.033V177.471C130.627 178.252 130.409 178.882 129.981 179.366C129.549 179.851 128.961 180.096 128.211 180.096C127.461 180.096 126.867 179.851 126.44 179.366C126.007 178.882 125.794 178.252 125.794 177.471V153.825C125.794 153.049 126.023 152.429 126.481 151.971C126.94 151.502 127.544 151.262 128.294 151.262C129.127 151.262 129.773 151.57 130.231 152.179L144.877 171.221V153.825C144.877 153.049 145.096 152.429 145.544 151.971C145.987 151.502 146.57 151.262 147.294 151.262Z" fill="black"/>
<path d="M172.174 180.2C169.435 180.2 167.039 179.611 164.987 178.429C162.929 177.252 161.346 175.564 160.237 173.366C159.138 171.158 158.591 168.585 158.591 165.637C158.591 162.679 159.138 160.111 160.237 157.929C161.346 155.736 162.929 154.049 164.987 152.866C167.039 151.689 169.435 151.096 172.174 151.096C173.935 151.096 175.596 151.361 177.153 151.887C178.721 152.403 180.112 153.158 181.32 154.158C181.664 154.424 181.903 154.71 182.028 155.012C182.164 155.304 182.237 155.669 182.237 156.096C182.237 156.679 182.075 157.174 181.758 157.575C181.435 157.981 181.049 158.179 180.591 158.179C180.049 158.179 179.497 157.991 178.945 157.616C177.778 156.757 176.695 156.158 175.695 155.825C174.706 155.491 173.612 155.325 172.403 155.325C169.612 155.325 167.497 156.2 166.07 157.95C164.638 159.689 163.924 162.252 163.924 165.637C163.924 169.044 164.638 171.616 166.07 173.366C167.497 175.106 169.612 175.971 172.403 175.971C173.57 175.971 174.638 175.799 175.612 175.45C176.596 175.106 177.706 174.512 178.945 173.679C179.206 173.528 179.471 173.398 179.737 173.283C180.013 173.174 180.299 173.116 180.591 173.116C181.049 173.116 181.435 173.32 181.758 173.721C182.075 174.127 182.237 174.627 182.237 175.221C182.237 175.627 182.164 175.981 182.028 176.283C181.903 176.59 181.664 176.877 181.32 177.137C180.112 178.137 178.721 178.903 177.153 179.429C175.596 179.939 173.935 180.2 172.174 180.2Z" fill="black"/>
<path d="M216.131 176.741C216.298 177.09 216.381 177.439 216.381 177.783C216.381 178.408 216.131 178.939 215.631 179.366C215.131 179.799 214.558 180.012 213.923 180.012C213.491 180.012 213.09 179.898 212.715 179.679C212.34 179.445 212.038 179.085 211.819 178.596L209.402 173.2H195.235L192.819 178.596C192.595 179.085 192.298 179.445 191.923 179.679C191.548 179.898 191.131 180.012 190.673 180.012C190.058 180.012 189.496 179.799 188.985 179.366C188.485 178.939 188.235 178.408 188.235 177.783C188.235 177.439 188.308 177.09 188.465 176.741L199.59 152.866C199.824 152.325 200.194 151.919 200.694 151.637C201.194 151.361 201.72 151.221 202.277 151.221C202.845 151.221 203.371 151.361 203.86 151.637C204.36 151.919 204.735 152.325 204.985 152.866L216.131 176.741ZM197.006 169.179H207.631L202.319 157.221L197.006 169.179Z" fill="black"/>
<path d="M33.863 180.2C31.79 180.2 29.8317 179.929 27.988 179.387C26.1546 178.835 24.6598 178.085 23.5088 177.137C22.8838 176.695 22.5713 176.054 22.5713 175.221C22.5713 174.653 22.738 174.158 23.0713 173.741C23.415 173.325 23.8213 173.116 24.2796 173.116C24.7484 173.116 25.3005 173.304 25.9255 173.679C27.0765 174.512 28.2848 175.116 29.5505 175.491C30.8109 175.866 32.2067 176.054 33.738 176.054C35.6963 176.054 37.1963 175.715 38.238 175.033C39.29 174.356 39.8213 173.356 39.8213 172.033C39.8213 171.023 39.3265 170.236 38.3421 169.679C37.3682 169.127 35.738 168.596 33.4463 168.096C31.0817 167.585 29.1598 166.991 27.6755 166.325C26.2015 165.648 25.0921 164.783 24.3421 163.741C23.5921 162.689 23.2171 161.356 23.2171 159.741C23.2171 158.09 23.6859 156.606 24.6338 155.283C25.5765 153.965 26.8838 152.939 28.5505 152.2C30.2275 151.465 32.1182 151.096 34.2171 151.096C38.0505 151.096 41.1755 152.116 43.5921 154.158C43.9359 154.45 44.1859 154.741 44.3421 155.033C44.4932 155.314 44.5713 155.669 44.5713 156.096C44.5713 156.653 44.3942 157.137 44.0505 157.554C43.7171 157.971 43.3265 158.179 42.8838 158.179C42.6025 158.179 42.3473 158.137 42.113 158.054C41.889 157.971 41.5921 157.825 41.2171 157.616C40.1182 156.814 39.0505 156.215 38.0088 155.825C36.9775 155.439 35.7171 155.241 34.2171 155.241C32.3942 155.241 30.9515 155.611 29.8838 156.346C28.8265 157.085 28.3005 158.111 28.3005 159.429C28.3005 160.528 28.764 161.377 29.6963 161.971C30.639 162.554 32.238 163.106 34.488 163.616C36.889 164.158 38.8317 164.757 40.3213 165.408C41.8057 166.064 42.9463 166.903 43.738 167.929C44.5296 168.945 44.9255 170.215 44.9255 171.741C44.9255 173.408 44.4567 174.882 43.5296 176.158C42.613 177.439 41.3109 178.429 39.6338 179.137C37.9515 179.846 36.0296 180.2 33.863 180.2Z" fill="black"/>
<path d="M55.9183 180.096C55.137 180.096 54.512 179.851 54.0433 179.366C53.5693 178.882 53.335 178.252 53.335 177.471V153.825C53.335 153.049 53.5693 152.429 54.0433 151.971C54.512 151.502 55.137 151.262 55.9183 151.262C56.7204 151.262 57.3558 151.502 57.8141 151.971C58.2829 152.429 58.5225 153.049 58.5225 153.825V177.471C58.5225 178.252 58.2829 178.882 57.8141 179.366C57.3558 179.851 56.7204 180.096 55.9183 180.096Z" fill="black"/>
<path d="M70.8535 180.096C70.0722 180.096 69.4472 179.856 68.9785 179.387C68.5045 178.919 68.2701 178.278 68.2701 177.471V153.908C68.2701 153.132 68.4889 152.528 68.9368 152.096C69.3795 151.669 69.9889 151.45 70.7701 151.45H80.666C83.7076 151.45 86.067 152.215 87.7493 153.741C89.442 155.257 90.291 157.382 90.291 160.116C90.291 162.856 89.442 164.986 87.7493 166.512C86.067 168.044 83.7076 168.804 80.666 168.804H73.4576V177.471C73.4576 178.278 73.2181 178.919 72.7493 179.387C72.291 179.856 71.6556 180.096 70.8535 180.096ZM80.0201 164.825C83.5878 164.825 85.3743 163.273 85.3743 160.158C85.3743 157.049 83.5878 155.491 80.0201 155.491H73.4576V164.825H80.0201Z" fill="black"/>
<path d="M100.961 179.846C100.18 179.846 99.5704 179.632 99.1277 179.2C98.6798 178.773 98.4611 178.169 98.4611 177.387V153.908C98.4611 153.132 98.6798 152.528 99.1277 152.096C99.5704 151.669 100.18 151.45 100.961 151.45H115.503C116.279 151.45 116.878 151.627 117.294 151.971C117.721 152.32 117.94 152.82 117.94 153.471C117.94 154.137 117.721 154.653 117.294 155.012C116.878 155.377 116.279 155.554 115.503 155.554H103.524V163.366H114.69C115.466 163.366 116.07 163.549 116.503 163.908C116.93 164.257 117.149 164.762 117.149 165.429C117.149 166.07 116.93 166.57 116.503 166.929C116.07 167.278 115.466 167.45 114.69 167.45H103.524V175.741H115.503C116.279 175.741 116.878 175.924 117.294 176.283C117.721 176.648 117.94 177.158 117.94 177.825C117.94 178.481 117.721 178.981 117.294 179.325C116.878 179.674 116.279 179.846 115.503 179.846H100.961Z" fill="black"/>
<path d="M147.294 151.262C148.044 151.262 148.638 151.502 149.086 151.971C149.528 152.429 149.752 153.049 149.752 153.825V177.471C149.752 178.252 149.523 178.882 149.065 179.366C148.606 179.851 148.013 180.096 147.294 180.096C146.429 180.096 145.773 179.783 145.315 179.158L130.627 160.033V177.471C130.627 178.252 130.409 178.882 129.981 179.366C129.549 179.851 128.961 180.096 128.211 180.096C127.461 180.096 126.867 179.851 126.44 179.366C126.007 178.882 125.794 178.252 125.794 177.471V153.825C125.794 153.049 126.023 152.429 126.481 151.971C126.94 151.502 127.544 151.262 128.294 151.262C129.127 151.262 129.773 151.57 130.231 152.179L144.877 171.221V153.825C144.877 153.049 145.096 152.429 145.544 151.971C145.987 151.502 146.57 151.262 147.294 151.262Z" fill="black"/>
<path d="M172.174 180.2C169.435 180.2 167.039 179.611 164.987 178.429C162.929 177.252 161.346 175.564 160.237 173.366C159.138 171.158 158.591 168.585 158.591 165.637C158.591 162.679 159.138 160.111 160.237 157.929C161.346 155.736 162.929 154.049 164.987 152.866C167.039 151.689 169.435 151.096 172.174 151.096C173.935 151.096 175.596 151.361 177.153 151.887C178.721 152.403 180.112 153.158 181.32 154.158C181.664 154.424 181.903 154.71 182.028 155.012C182.164 155.304 182.237 155.669 182.237 156.096C182.237 156.679 182.075 157.174 181.758 157.575C181.435 157.981 181.049 158.179 180.591 158.179C180.049 158.179 179.497 157.991 178.945 157.616C177.778 156.757 176.695 156.158 175.695 155.825C174.706 155.491 173.612 155.325 172.403 155.325C169.612 155.325 167.497 156.2 166.07 157.95C164.638 159.689 163.924 162.252 163.924 165.637C163.924 169.044 164.638 171.616 166.07 173.366C167.497 175.106 169.612 175.971 172.403 175.971C173.57 175.971 174.638 175.799 175.612 175.45C176.596 175.106 177.706 174.512 178.945 173.679C179.206 173.528 179.471 173.398 179.737 173.283C180.013 173.174 180.299 173.116 180.591 173.116C181.049 173.116 181.435 173.32 181.758 173.721C182.075 174.127 182.237 174.627 182.237 175.221C182.237 175.627 182.164 175.981 182.028 176.283C181.903 176.59 181.664 176.877 181.32 177.137C180.112 178.137 178.721 178.903 177.153 179.429C175.596 179.939 173.935 180.2 172.174 180.2Z" fill="black"/>
<path d="M216.131 176.741C216.298 177.09 216.381 177.439 216.381 177.783C216.381 178.408 216.131 178.939 215.631 179.366C215.131 179.799 214.558 180.012 213.923 180.012C213.491 180.012 213.09 179.898 212.715 179.679C212.34 179.445 212.038 179.085 211.819 178.596L209.402 173.2H195.235L192.819 178.596C192.595 179.085 192.298 179.445 191.923 179.679C191.548 179.898 191.131 180.012 190.673 180.012C190.058 180.012 189.496 179.799 188.985 179.366C188.485 178.939 188.235 178.408 188.235 177.783C188.235 177.439 188.308 177.09 188.465 176.741L199.59 152.866C199.824 152.325 200.194 151.919 200.694 151.637C201.194 151.361 201.72 151.221 202.277 151.221C202.845 151.221 203.371 151.361 203.86 151.637C204.36 151.919 204.735 152.325 204.985 152.866L216.131 176.741ZM197.006 169.179H207.631L202.319 157.221L197.006 169.179Z" fill="black"/>
<path d="M0.8125 213.153C0.5625 213.153 0.359375 213.075 0.208333 212.924C0.067708 212.773 0 212.569 0 212.319V204.944C0 204.694 0.067708 204.507 0.208333 204.382C0.343749 204.247 0.541667 204.174 0.791667 204.174H3.89583C4.83854 204.174 5.57292 204.413 6.10417 204.882C6.64583 205.356 6.91667 206.023 6.91667 206.882C6.91667 207.747 6.64583 208.418 6.10417 208.903C5.57292 209.377 4.83854 209.611 3.89583 209.611H1.625V212.319C1.625 212.569 1.54687 212.773 1.39583 212.924C1.25521 213.075 1.0625 213.153 0.8125 213.153ZM3.6875 208.361C4.8125 208.361 5.375 207.877 5.375 206.903C5.375 205.918 4.8125 205.424 3.6875 205.424H1.625V208.361H3.6875Z" fill="black"/>
<path d="M11.4504 213.069C11.2004 213.069 11.0024 213.007 10.867 212.882C10.7264 212.747 10.6587 212.549 10.6587 212.299V204.944C10.6587 204.694 10.7264 204.507 10.867 204.382C11.0024 204.247 11.2004 204.174 11.4504 204.174H15.992C16.242 204.174 16.4295 204.231 16.5545 204.34C16.6899 204.455 16.7629 204.606 16.7629 204.799C16.7629 205.007 16.6899 205.174 16.5545 205.299C16.4295 205.413 16.242 205.465 15.992 205.465H12.242V207.903H15.742C15.992 207.903 16.1795 207.96 16.3045 208.069C16.4399 208.184 16.5129 208.34 16.5129 208.549C16.5129 208.757 16.4399 208.918 16.3045 209.028C16.1795 209.127 15.992 209.174 15.742 209.174H12.242V211.778H15.992C16.242 211.778 16.4295 211.84 16.5545 211.965C16.6899 212.08 16.7629 212.236 16.7629 212.444C16.7629 212.642 16.6899 212.793 16.5545 212.903C16.4295 213.017 16.242 213.069 15.992 213.069H11.4504Z" fill="black"/>
<path d="M27.1721 204.111C27.4065 204.111 27.594 204.189 27.7346 204.34C27.87 204.481 27.943 204.674 27.943 204.924V212.319C27.943 212.569 27.8648 212.773 27.7138 212.924C27.5732 213.075 27.3909 213.153 27.1721 213.153C26.8909 213.153 26.6825 213.059 26.5471 212.861L21.943 206.861V212.319C21.943 212.569 21.87 212.773 21.7346 212.924C21.594 213.075 21.4065 213.153 21.1721 213.153C20.9325 213.153 20.745 213.075 20.6096 212.924C20.4846 212.773 20.4221 212.569 20.4221 212.319V204.924C20.4221 204.674 20.4898 204.481 20.6305 204.34C20.7815 204.189 20.9742 204.111 21.2138 204.111C21.4638 204.111 21.6617 204.21 21.818 204.403L26.4013 210.361V204.924C26.4013 204.674 26.469 204.481 26.6096 204.34C26.745 204.189 26.9325 204.111 27.1721 204.111Z" fill="black"/>
<path d="M40.2404 212.09C40.2924 212.205 40.3237 212.314 40.3237 212.424C40.3237 212.622 40.2456 212.788 40.0945 212.924C39.9383 213.049 39.7612 213.111 39.5529 213.111C39.4122 213.111 39.282 213.075 39.157 213.007C39.0424 212.939 38.9539 212.83 38.8862 212.674L38.1362 210.986H33.6987L32.9279 212.674C32.8706 212.83 32.782 212.939 32.657 213.007C32.5424 213.075 32.4122 213.111 32.2612 213.111C32.0633 213.111 31.8862 213.049 31.7195 212.924C31.5633 212.788 31.4904 212.622 31.4904 212.424C31.4904 212.314 31.5164 212.205 31.5737 212.09L35.0529 204.611C35.1362 204.444 35.2508 204.319 35.407 204.236C35.5581 204.142 35.7247 204.09 35.907 204.09C36.0841 204.09 36.2508 204.142 36.407 204.236C36.5581 204.319 36.6674 204.444 36.7404 204.611L40.2404 212.09ZM34.2404 209.715H37.5737L35.907 205.965L34.2404 209.715Z" fill="black"/>
<path d="M50.6206 204.111C50.855 204.111 51.0425 204.189 51.1831 204.34C51.3185 204.481 51.3914 204.674 51.3914 204.924V212.319C51.3914 212.569 51.3133 212.773 51.1623 212.924C51.0216 213.075 50.8394 213.153 50.6206 213.153C50.3394 213.153 50.131 213.059 49.9956 212.861L45.3914 206.861V212.319C45.3914 212.569 45.3185 212.773 45.1831 212.924C45.0425 213.075 44.855 213.153 44.6206 213.153C44.381 213.153 44.1935 213.075 44.0581 212.924C43.9331 212.773 43.8706 212.569 43.8706 212.319V204.924C43.8706 204.674 43.9383 204.481 44.0789 204.34C44.23 204.189 44.4227 204.111 44.6623 204.111C44.9123 204.111 45.1102 204.21 45.2664 204.403L49.8498 210.361V204.924C49.8498 204.674 49.9175 204.481 50.0581 204.34C50.1935 204.189 50.381 204.111 50.6206 204.111Z" fill="black"/>
<path d="M62.3971 208.257C62.5898 208.257 62.7409 208.314 62.8555 208.424C62.9805 208.538 63.043 208.689 63.043 208.882V211.59C63.043 211.981 62.9909 212.257 62.8971 212.424C62.7982 212.58 62.5898 212.705 62.2721 212.799C61.9388 212.924 61.5482 213.017 61.1055 213.069C60.6576 213.137 60.2305 213.174 59.8138 213.174C58.8971 213.174 58.0951 212.997 57.418 212.632C56.7513 212.273 56.2357 211.752 55.8763 211.069C55.5273 210.392 55.3555 209.569 55.3555 208.611C55.3555 207.684 55.5273 206.877 55.8763 206.194C56.2357 205.502 56.7409 204.976 57.3971 204.611C58.0638 204.236 58.8398 204.049 59.7305 204.049C60.9076 204.049 61.8815 204.372 62.6471 205.007C62.7409 205.106 62.8138 205.205 62.8555 205.299C62.9076 205.382 62.9388 205.486 62.9388 205.611C62.9388 205.809 62.8815 205.965 62.7721 206.09C62.6732 206.215 62.5534 206.278 62.418 206.278C62.319 206.278 62.2357 206.267 62.168 206.236C62.0951 206.21 62.0065 206.163 61.8971 206.09C61.5326 205.83 61.194 205.648 60.8763 205.549C60.5534 205.439 60.1888 205.382 59.7721 205.382C58.8555 205.382 58.1576 205.653 57.6888 206.194C57.2305 206.736 57.0013 207.543 57.0013 208.611C57.0013 210.809 57.9596 211.903 59.8763 211.903C60.444 211.903 61.0221 211.819 61.6055 211.653V209.424H60.168C59.9701 209.424 59.8138 209.377 59.6888 209.278C59.5742 209.168 59.5221 209.023 59.5221 208.84C59.5221 208.663 59.5742 208.523 59.6888 208.424C59.8138 208.314 59.9701 208.257 60.168 208.257H62.3971Z" fill="black"/>
<path d="M73.9764 208.257C74.1691 208.257 74.3201 208.314 74.4347 208.424C74.5597 208.538 74.6222 208.689 74.6222 208.882V211.59C74.6222 211.981 74.5701 212.257 74.4764 212.424C74.3774 212.58 74.1691 212.705 73.8514 212.799C73.518 212.924 73.1274 213.017 72.6847 213.069C72.2368 213.137 71.8097 213.174 71.393 213.174C70.4764 213.174 69.6743 212.997 68.9972 212.632C68.3305 212.273 67.8149 211.752 67.4555 211.069C67.1066 210.392 66.9347 209.569 66.9347 208.611C66.9347 207.684 67.1066 206.877 67.4555 206.194C67.8149 205.502 68.3201 204.976 68.9764 204.611C69.643 204.236 70.4191 204.049 71.3097 204.049C72.4868 204.049 73.4607 204.372 74.2264 205.007C74.3201 205.106 74.393 205.205 74.4347 205.299C74.4868 205.382 74.518 205.486 74.518 205.611C74.518 205.809 74.4607 205.965 74.3514 206.09C74.2524 206.215 74.1326 206.278 73.9972 206.278C73.8982 206.278 73.8149 206.267 73.7472 206.236C73.6743 206.21 73.5857 206.163 73.4764 206.09C73.1118 205.83 72.7732 205.648 72.4555 205.549C72.1326 205.439 71.768 205.382 71.3514 205.382C70.4347 205.382 69.7368 205.653 69.268 206.194C68.8097 206.736 68.5805 207.543 68.5805 208.611C68.5805 210.809 69.5389 211.903 71.4555 211.903C72.0232 211.903 72.6014 211.819 73.1847 211.653V209.424H71.7472C71.5493 209.424 71.393 209.377 71.268 209.278C71.1534 209.168 71.1014 209.023 71.1014 208.84C71.1014 208.663 71.1534 208.523 71.268 208.424C71.393 208.314 71.5493 208.257 71.7472 208.257H73.9764Z" fill="black"/>
<path d="M82.4514 213.174C81.243 213.174 80.316 212.861 79.6805 212.236C79.0555 211.611 78.743 210.689 78.743 209.465V204.924C78.743 204.674 78.8107 204.481 78.9514 204.34C79.0868 204.189 79.2847 204.111 79.5347 204.111C79.7691 204.111 79.9566 204.189 80.0972 204.34C80.2483 204.481 80.3264 204.674 80.3264 204.924V209.569C80.3264 210.335 80.5035 210.913 80.868 211.299C81.2274 211.689 81.7535 211.882 82.4514 211.882C83.1441 211.882 83.6701 211.689 84.0347 211.299C84.3941 210.898 84.5764 210.319 84.5764 209.569V204.924C84.5764 204.674 84.6441 204.481 84.7847 204.34C84.9358 204.189 85.1285 204.111 85.368 204.111C85.618 204.111 85.8108 204.189 85.9514 204.34C86.1024 204.481 86.1805 204.674 86.1805 204.924V209.465C86.1805 210.674 85.8576 211.601 85.2222 212.236C84.5972 212.861 83.6701 213.174 82.4514 213.174Z" fill="black"/>
<path d="M91.1347 213.069C90.8847 213.069 90.6868 213.007 90.5514 212.882C90.4264 212.747 90.3639 212.559 90.3639 212.319V204.924C90.3639 204.674 90.4316 204.481 90.5722 204.34C90.7233 204.189 90.9264 204.111 91.1764 204.111C91.4264 204.111 91.6191 204.189 91.7597 204.34C91.9108 204.481 91.9889 204.674 91.9889 204.924V211.736H95.5514C96.0514 211.736 96.3014 211.96 96.3014 212.403C96.3014 212.851 96.0514 213.069 95.5514 213.069H91.1347Z" fill="black"/>
<path d="M107.761 212.09C107.813 212.205 107.844 212.314 107.844 212.424C107.844 212.622 107.766 212.788 107.615 212.924C107.459 213.049 107.282 213.111 107.074 213.111C106.933 213.111 106.803 213.075 106.678 213.007C106.563 212.939 106.475 212.83 106.407 212.674L105.657 210.986H101.219L100.449 212.674C100.391 212.83 100.303 212.939 100.178 213.007C100.063 213.075 99.933 213.111 99.7819 213.111C99.584 213.111 99.4069 213.049 99.2403 212.924C99.084 212.788 99.0111 212.622 99.0111 212.424C99.0111 212.314 99.0371 212.205 99.0944 212.09L102.574 204.611C102.657 204.444 102.772 204.319 102.928 204.236C103.079 204.142 103.245 204.09 103.428 204.09C103.605 204.09 103.772 204.142 103.928 204.236C104.079 204.319 104.188 204.444 104.261 204.611L107.761 212.09ZM101.761 209.715H105.094L103.428 205.965L101.761 209.715Z" fill="black"/>
<path d="M118.141 204.111C118.376 204.111 118.563 204.189 118.704 204.34C118.839 204.481 118.912 204.674 118.912 204.924V212.319C118.912 212.569 118.834 212.773 118.683 212.924C118.542 213.075 118.36 213.153 118.141 213.153C117.86 213.153 117.652 213.059 117.516 212.861L112.912 206.861V212.319C112.912 212.569 112.839 212.773 112.704 212.924C112.563 213.075 112.376 213.153 112.141 213.153C111.902 213.153 111.714 213.075 111.579 212.924C111.454 212.773 111.391 212.569 111.391 212.319V204.924C111.391 204.674 111.459 204.481 111.6 204.34C111.751 204.189 111.943 204.111 112.183 204.111C112.433 204.111 112.631 204.21 112.787 204.403L117.371 210.361V204.924C117.371 204.674 117.438 204.481 117.579 204.34C117.714 204.189 117.902 204.111 118.141 204.111Z" fill="black"/>
<path d="M129.918 208.257C130.111 208.257 130.262 208.314 130.376 208.424C130.501 208.538 130.564 208.689 130.564 208.882V211.59C130.564 211.981 130.512 212.257 130.418 212.424C130.319 212.58 130.111 212.705 129.793 212.799C129.46 212.924 129.069 213.017 128.626 213.069C128.178 213.137 127.751 213.174 127.335 213.174C126.418 213.174 125.616 212.997 124.939 212.632C124.272 212.273 123.756 211.752 123.397 211.069C123.048 210.392 122.876 209.569 122.876 208.611C122.876 207.684 123.048 206.877 123.397 206.194C123.756 205.502 124.262 204.976 124.918 204.611C125.585 204.236 126.361 204.049 127.251 204.049C128.428 204.049 129.402 204.372 130.168 205.007C130.262 205.106 130.335 205.205 130.376 205.299C130.428 205.382 130.46 205.486 130.46 205.611C130.46 205.809 130.402 205.965 130.293 206.09C130.194 206.215 130.074 206.278 129.939 206.278C129.84 206.278 129.756 206.267 129.689 206.236C129.616 206.21 129.527 206.163 129.418 206.09C129.053 205.83 128.715 205.648 128.397 205.549C128.074 205.439 127.71 205.382 127.293 205.382C126.376 205.382 125.678 205.653 125.21 206.194C124.751 206.736 124.522 207.543 124.522 208.611C124.522 210.809 125.48 211.903 127.397 211.903C127.965 211.903 128.543 211.819 129.126 211.653V209.424H127.689C127.491 209.424 127.335 209.377 127.21 209.278C127.095 209.168 127.043 209.023 127.043 208.84C127.043 208.663 127.095 208.523 127.21 208.424C127.335 208.314 127.491 208.257 127.689 208.257H129.918Z" fill="black"/>
<path d="M142.789 212.09C142.841 212.205 142.872 212.314 142.872 212.424C142.872 212.622 142.794 212.788 142.643 212.924C142.487 213.049 142.31 213.111 142.101 213.111C141.961 213.111 141.83 213.075 141.705 213.007C141.591 212.939 141.502 212.83 141.435 212.674L140.685 210.986H136.247L135.476 212.674C135.419 212.83 135.33 212.939 135.205 213.007C135.091 213.075 134.961 213.111 134.81 213.111C134.612 213.111 134.435 213.049 134.268 212.924C134.112 212.788 134.039 212.622 134.039 212.424C134.039 212.314 134.065 212.205 134.122 212.09L137.601 204.611C137.685 204.444 137.799 204.319 137.955 204.236C138.107 204.142 138.273 204.09 138.455 204.09C138.633 204.09 138.799 204.142 138.955 204.236C139.107 204.319 139.216 204.444 139.289 204.611L142.789 212.09ZM136.789 209.715H140.122L138.455 205.965L136.789 209.715Z" fill="black"/>
<path d="M153.169 204.111C153.403 204.111 153.591 204.189 153.731 204.34C153.867 204.481 153.94 204.674 153.94 204.924V212.319C153.94 212.569 153.862 212.773 153.711 212.924C153.57 213.075 153.388 213.153 153.169 213.153C152.888 213.153 152.679 213.059 152.544 212.861L147.94 206.861V212.319C147.94 212.569 147.867 212.773 147.731 212.924C147.591 213.075 147.403 213.153 147.169 213.153C146.929 213.153 146.742 213.075 146.606 212.924C146.481 212.773 146.419 212.569 146.419 212.319V204.924C146.419 204.674 146.487 204.481 146.627 204.34C146.778 204.189 146.971 204.111 147.211 204.111C147.461 204.111 147.659 204.21 147.815 204.403L152.398 210.361V204.924C152.398 204.674 152.466 204.481 152.606 204.34C152.742 204.189 152.929 204.111 153.169 204.111Z" fill="black"/>
<path d="M169.408 208.465C169.918 208.622 170.314 208.882 170.595 209.257C170.887 209.632 171.033 210.101 171.033 210.653C171.033 211.403 170.751 211.997 170.199 212.424C169.658 212.856 168.913 213.069 167.97 213.069H164.72C164.47 213.069 164.272 213.007 164.137 212.882C163.996 212.747 163.928 212.549 163.928 212.299V204.944C163.928 204.694 163.996 204.507 164.137 204.382C164.272 204.247 164.47 204.174 164.72 204.174H167.845C168.772 204.174 169.496 204.382 170.012 204.799C170.538 205.205 170.803 205.767 170.803 206.486C170.803 206.96 170.678 207.372 170.428 207.715C170.189 208.064 169.85 208.314 169.408 208.465ZM165.512 207.924H167.574C168.699 207.924 169.262 207.507 169.262 206.674C169.262 206.247 169.121 205.934 168.845 205.736C168.564 205.528 168.142 205.424 167.574 205.424H165.512V207.924ZM167.783 211.799C168.376 211.799 168.809 211.694 169.074 211.486C169.35 211.278 169.491 210.955 169.491 210.507C169.491 210.064 169.35 209.731 169.074 209.507C168.793 209.288 168.366 209.174 167.783 209.174H165.512V211.799H167.783Z" fill="black"/>
<path d="M175.669 213.069C175.419 213.069 175.221 213.007 175.085 212.882C174.945 212.747 174.877 212.549 174.877 212.299V204.944C174.877 204.694 174.945 204.507 175.085 204.382C175.221 204.247 175.419 204.174 175.669 204.174H180.21C180.46 204.174 180.648 204.231 180.773 204.34C180.908 204.455 180.981 204.606 180.981 204.799C180.981 205.007 180.908 205.174 180.773 205.299C180.648 205.413 180.46 205.465 180.21 205.465H176.46V207.903H179.96C180.21 207.903 180.398 207.96 180.523 208.069C180.658 208.184 180.731 208.34 180.731 208.549C180.731 208.757 180.658 208.918 180.523 209.028C180.398 209.127 180.21 209.174 179.96 209.174H176.46V211.778H180.21C180.46 211.778 180.648 211.84 180.773 211.965C180.908 212.08 180.981 212.236 180.981 212.444C180.981 212.642 180.908 212.793 180.773 212.903C180.648 213.017 180.46 213.069 180.21 213.069H175.669Z" fill="black"/>
<path d="M191.391 204.111C191.625 204.111 191.812 204.189 191.953 204.34C192.088 204.481 192.161 204.674 192.161 204.924V212.319C192.161 212.569 192.083 212.773 191.932 212.924C191.792 213.075 191.609 213.153 191.391 213.153C191.109 213.153 190.901 213.059 190.766 212.861L186.161 206.861V212.319C186.161 212.569 186.088 212.773 185.953 212.924C185.812 213.075 185.625 213.153 185.391 213.153C185.151 213.153 184.963 213.075 184.828 212.924C184.703 212.773 184.641 212.569 184.641 212.319V204.924C184.641 204.674 184.708 204.481 184.849 204.34C185 204.189 185.193 204.111 185.432 204.111C185.682 204.111 185.88 204.21 186.036 204.403L190.62 210.361V204.924C190.62 204.674 190.687 204.481 190.828 204.34C190.963 204.189 191.151 204.111 191.391 204.111Z" fill="black"/>
<path d="M200.375 213.174C199.511 213.174 198.756 212.997 198.105 212.632C197.464 212.257 196.969 211.731 196.625 211.049C196.292 210.356 196.125 209.543 196.125 208.611C196.125 207.684 196.292 206.877 196.625 206.194C196.969 205.517 197.464 204.986 198.105 204.611C198.756 204.236 199.511 204.049 200.375 204.049C200.927 204.049 201.448 204.132 201.938 204.299C202.422 204.465 202.86 204.705 203.25 205.007C203.344 205.09 203.417 205.184 203.459 205.278C203.5 205.377 203.521 205.486 203.521 205.611C203.521 205.809 203.469 205.965 203.375 206.09C203.276 206.215 203.157 206.278 203.021 206.278C202.839 206.278 202.667 206.215 202.5 206.09C202.136 205.83 201.797 205.648 201.48 205.549C201.172 205.439 200.834 205.382 200.459 205.382C199.584 205.382 198.917 205.663 198.459 206.215C198.011 206.757 197.792 207.559 197.792 208.611C197.792 209.684 198.011 210.497 198.459 211.049C198.917 211.59 199.584 211.861 200.459 211.861C200.818 211.861 201.151 211.809 201.459 211.694C201.761 211.585 202.11 211.398 202.5 211.132C202.584 211.09 202.667 211.059 202.75 211.028C202.834 210.986 202.922 210.965 203.021 210.965C203.157 210.965 203.276 211.028 203.375 211.153C203.469 211.278 203.521 211.434 203.521 211.611C203.521 211.736 203.5 211.851 203.459 211.944C203.417 212.043 203.344 212.132 203.25 212.215C202.86 212.538 202.422 212.778 201.938 212.944C201.448 213.096 200.927 213.174 200.375 213.174Z" fill="black"/>
<path d="M215.344 212.09C215.397 212.205 215.428 212.314 215.428 212.424C215.428 212.622 215.35 212.788 215.199 212.924C215.042 213.049 214.865 213.111 214.657 213.111C214.516 213.111 214.386 213.075 214.261 213.007C214.147 212.939 214.058 212.83 213.99 212.674L213.24 210.986H208.803L208.032 212.674C207.975 212.83 207.886 212.939 207.761 213.007C207.647 213.075 207.516 213.111 207.365 213.111C207.167 213.111 206.99 213.049 206.824 212.924C206.667 212.788 206.594 212.622 206.594 212.424C206.594 212.314 206.621 212.205 206.678 212.09L210.157 204.611C210.24 204.444 210.355 204.319 210.511 204.236C210.662 204.142 210.829 204.09 211.011 204.09C211.188 204.09 211.355 204.142 211.511 204.236C211.662 204.319 211.772 204.444 211.844 204.611L215.344 212.09ZM209.344 209.715H212.678L211.011 205.965L209.344 209.715Z" fill="black"/>
<path d="M225.725 204.111C225.959 204.111 226.146 204.189 226.287 204.34C226.423 204.481 226.495 204.674 226.495 204.924V212.319C226.495 212.569 226.417 212.773 226.266 212.924C226.126 213.075 225.943 213.153 225.725 213.153C225.443 213.153 225.235 213.059 225.1 212.861L220.495 206.861V212.319C220.495 212.569 220.423 212.773 220.287 212.924C220.146 213.075 219.959 213.153 219.725 213.153C219.485 213.153 219.298 213.075 219.162 212.924C219.037 212.773 218.975 212.569 218.975 212.319V204.924C218.975 204.674 219.042 204.481 219.183 204.34C219.334 204.189 219.527 204.111 219.766 204.111C220.016 204.111 220.214 204.21 220.37 204.403L224.954 210.361V204.924C224.954 204.674 225.021 204.481 225.162 204.34C225.298 204.189 225.485 204.111 225.725 204.111Z" fill="black"/>
<path d="M238.793 212.09C238.845 212.205 238.876 212.314 238.876 212.424C238.876 212.622 238.798 212.788 238.647 212.924C238.491 213.049 238.314 213.111 238.105 213.111C237.965 213.111 237.835 213.075 237.71 213.007C237.595 212.939 237.506 212.83 237.439 212.674L236.689 210.986H232.251L231.48 212.674C231.423 212.83 231.335 212.939 231.21 213.007C231.095 213.075 230.965 213.111 230.814 213.111C230.616 213.111 230.439 213.049 230.272 212.924C230.116 212.788 230.043 212.622 230.043 212.424C230.043 212.314 230.069 212.205 230.126 212.09L233.605 204.611C233.689 204.444 233.803 204.319 233.96 204.236C234.111 204.142 234.277 204.09 234.46 204.09C234.637 204.09 234.803 204.142 234.96 204.236C235.111 204.319 235.22 204.444 235.293 204.611L238.793 212.09ZM232.793 209.715H236.126L234.46 205.965L232.793 209.715Z" fill="black"/>
</svg>
