<svg width="128" height="121" viewBox="0 0 128 121" fill="none" xmlns="http://www.w3.org/2000/svg">
<path d="M117.394 65.9511L115.545 63.8677C115.972 63.6959 116.337 63.4354 116.629 63.0761C117.077 62.4927 127.847 48.9302 127.847 36.2063C127.847 35.8886 127.452 4.00316 92.4464 0.466696C91.7589 0.310447 76.1704 -2.46039 64.3475 7.56565C60.535 4.56045 52.6756 -0.351011 36.4829 0.414613C3.0662 3.63336 0.847448 35.7323 0.847448 36.1021C0.816197 41.5761 1.60786 46.9354 3.22766 52.1698C4.84224 57.4094 7.20682 62.2844 10.3162 66.7948C9.46203 67.9094 8.81099 69.1334 8.35786 70.4667C8.02974 71.4198 7.84745 72.4042 7.81099 73.4198C7.77453 74.4302 7.88391 75.425 8.13911 76.4042C8.39432 77.3782 8.79016 78.3 9.3162 79.1646C9.84745 80.0292 10.4881 80.7948 11.2433 81.4719C12.2224 82.5396 13.3787 83.3729 14.7016 83.9719C16.0245 84.5657 17.4099 84.8782 18.8631 84.9042H19.8422C19.7016 86.5136 19.9308 88.0657 20.5193 89.5709C21.1131 91.0761 22.0037 92.3677 23.2016 93.4563C24.186 94.5292 25.3422 95.3625 26.6704 95.9563C27.9985 96.5552 29.3943 96.8625 30.8474 96.8834H31.8006C31.7224 98.4615 31.9829 99.9823 32.5818 101.441C33.186 102.899 34.0714 104.165 35.2433 105.227C36.2225 106.295 37.3735 107.128 38.6964 107.722C40.0193 108.321 41.41 108.633 42.8631 108.659H43.8162C43.6964 110.264 43.9308 111.821 44.5245 113.321C45.1183 114.821 46.0089 116.118 47.2016 117.211C48.1808 118.279 49.3318 119.113 50.6547 119.706C51.9829 120.305 53.3683 120.613 54.8214 120.639C56.337 120.586 57.7902 120.264 59.186 119.675C60.5818 119.081 61.8266 118.258 62.9152 117.211L64.2381 115.863L65.7225 117.342C66.7797 118.389 67.9933 119.206 69.3683 119.795C70.7381 120.383 72.1704 120.701 73.66 120.748C75.1183 120.732 76.5141 120.425 77.8475 119.836C79.1808 119.243 80.3422 118.415 81.3318 117.342C82.5193 116.243 83.41 114.941 83.9985 113.435C84.587 111.93 84.8214 110.373 84.6912 108.764H85.6443C87.1287 108.764 88.5454 108.472 89.9047 107.878C91.2641 107.284 92.4464 106.446 93.4516 105.357C94.6495 104.274 95.5454 102.977 96.1339 101.477C96.7224 99.9719 96.9516 98.4146 96.811 96.8052C97.6027 96.8365 98.3891 96.7792 99.1756 96.649C99.9568 96.5136 100.717 96.3 101.457 96.0136C102.196 95.7219 102.894 95.3573 103.561 94.925C104.222 94.4927 104.837 93.9979 105.4 93.4354C105.962 92.8782 106.462 92.2688 106.894 91.6073C107.332 90.9459 107.696 90.2427 107.988 89.5084C108.28 88.774 108.493 88.0136 108.629 87.2323C108.769 86.4511 108.821 85.6698 108.795 84.8782C110.394 84.9771 111.931 84.7271 113.415 84.1334C114.9 83.5344 116.181 82.649 117.264 81.4719C118.009 80.8 118.639 80.0396 119.16 79.1802C119.686 78.3261 120.071 77.4146 120.327 76.4511C120.587 75.4823 120.696 74.4979 120.665 73.4979C120.634 72.4979 120.462 71.5188 120.144 70.5709C119.556 68.8365 118.639 67.2948 117.394 65.9511ZM66.3318 12.8469C76.3058 3.08128 91.3058 5.7219 91.6756 5.77399C122.077 8.75836 122.556 35.0969 122.556 36.2063C122.556 47.0552 112.582 59.6438 112.498 59.774C112.4 59.8886 112.311 60.0136 112.238 60.1438L77.5766 21.1594H77.4152C77.3891 21.0084 77.3214 20.8729 77.2068 20.7636H74.1079L73.9516 20.899L54.5297 40.2948C54.2693 40.5865 53.9829 40.8417 53.6704 41.0709C53.3579 41.3 53.0245 41.4927 52.6704 41.649C52.3162 41.8052 51.9464 41.925 51.5662 42.0084C51.186 42.0865 50.8058 42.1282 50.4152 42.1282C50.0297 42.1282 49.6443 42.0865 49.2641 42.0084C48.8839 41.925 48.5193 41.8052 48.1652 41.649C47.811 41.4927 47.4725 41.3 47.16 41.0709C46.8475 40.8417 46.561 40.5865 46.3006 40.2948C46.0141 40.0396 45.7641 39.7532 45.535 39.4407C45.311 39.1282 45.1235 38.7948 44.9672 38.4407C44.811 38.0865 44.6912 37.7271 44.6131 37.3469C44.535 36.9719 44.4933 36.5917 44.4933 36.2063C44.4933 35.8209 44.535 35.4407 44.6131 35.0657C44.6912 34.6854 44.811 34.3209 44.9672 33.9719C45.1235 33.6177 45.311 33.2844 45.535 32.9719C45.7641 32.6594 46.0141 32.3729 46.3006 32.1125L66.3318 12.8469ZM23.2016 77.6438C21.9777 78.7792 20.5297 79.4042 18.8631 79.5188C17.3006 79.4511 16.0037 78.8261 14.9724 77.6438C14.686 77.3834 14.4256 77.1021 14.2016 76.7844C13.9724 76.4719 13.7797 76.1386 13.6183 75.7896C13.462 75.4354 13.3422 75.0657 13.2589 74.6907C13.1808 74.3104 13.1391 73.925 13.1391 73.5396C13.1391 73.1542 13.1808 72.7688 13.2589 72.3938C13.3422 72.0136 13.462 71.649 13.6183 71.2948C13.7797 70.9407 13.9724 70.6073 14.2016 70.2948C14.4256 69.9823 14.686 69.6959 14.9724 69.4354L26.9099 57.5032C28.1287 56.3625 29.5766 55.7323 31.2485 55.6073C32.811 55.6854 34.1183 56.3104 35.16 57.4771C35.4464 57.7375 35.7016 58.0188 35.9308 58.3313C36.1547 58.6386 36.3474 58.9667 36.5037 59.3157C36.6652 59.6698 36.785 60.0292 36.8683 60.4042C36.9464 60.7792 36.9933 61.1542 36.9933 61.5396C36.9985 61.925 36.962 62.3 36.8891 62.6802C36.811 63.0552 36.7016 63.4198 36.5506 63.7688C36.3995 64.1229 36.212 64.4563 35.9933 64.7688C35.7745 65.0865 35.5245 65.3729 35.2433 65.6334L23.2016 77.6438ZM30.8474 91.4511C29.2797 91.3782 27.9724 90.7532 26.936 89.5761C26.6495 89.3157 26.3943 89.024 26.1704 88.7115C25.9412 88.399 25.7537 88.0657 25.5974 87.7115C25.4412 87.3573 25.3214 86.9927 25.2433 86.6177C25.1652 86.2375 25.1235 85.8573 25.1235 85.4719C25.1235 85.0865 25.1652 84.7011 25.2433 84.3261C25.3214 83.9459 25.4412 83.5813 25.5974 83.2271C25.7537 82.8729 25.9412 82.5396 26.1704 82.2271C26.3943 81.9146 26.6495 81.6282 26.936 81.3677L38.9204 69.4354C40.1235 68.3261 41.5454 67.7011 43.1808 67.5604C44.7433 67.6334 46.0402 68.2584 47.0662 69.4354C47.3579 69.6959 47.6131 69.9823 47.837 70.2948C48.0662 70.6073 48.2589 70.9407 48.4152 71.2948C48.5714 71.649 48.6912 72.0136 48.7693 72.3938C48.8527 72.7688 48.8891 73.1542 48.8891 73.5396C48.8891 73.925 48.8527 74.3104 48.7693 74.6854C48.6912 75.0657 48.5714 75.4302 48.4152 75.7844C48.2589 76.1386 48.0662 76.4719 47.837 76.7844C47.6131 77.0969 47.3579 77.3834 47.0662 77.6438L35.2433 89.5761C33.9933 90.7063 32.5297 91.3313 30.8474 91.4511ZM47.1495 101.503C45.9204 102.639 44.4777 103.274 42.811 103.404C41.2433 103.326 39.9464 102.691 38.9204 101.503C38.6339 101.243 38.3735 100.956 38.1495 100.644C37.9204 100.331 37.7329 99.9979 37.5714 99.6438C37.4152 99.2896 37.3006 98.925 37.2172 98.5448C37.1391 98.1698 37.0975 97.7844 37.0975 97.399C37.0975 97.0136 37.1391 96.6334 37.2172 96.2532C37.3006 95.8729 37.4152 95.5084 37.5714 95.1542C37.7329 94.8 37.9204 94.4667 38.1495 94.1542C38.3735 93.8417 38.6339 93.5552 38.9204 93.2948L50.8787 81.4719C52.0922 80.3365 53.5297 79.7115 55.1912 79.5969C56.7485 79.675 58.035 80.3 59.0558 81.4719C59.3422 81.7323 59.5975 82.0188 59.8266 82.3313C60.0506 82.6438 60.2433 82.9771 60.3995 83.3313C60.5558 83.6854 60.6756 84.05 60.7537 84.4302C60.837 84.8052 60.8787 85.1907 60.8787 85.5761C60.8787 85.9615 60.837 86.3469 60.7537 86.7219C60.6756 87.1021 60.5558 87.4667 60.3995 87.8209C60.2433 88.175 60.0506 88.5084 59.8266 88.8209C59.5975 89.1334 59.3422 89.4198 59.0558 89.6802L47.1495 101.503ZM59.0558 113.435C57.8214 114.581 56.3683 115.211 54.6912 115.336C53.1235 115.264 51.8266 114.639 50.8006 113.461C50.5141 113.201 50.2537 112.915 50.0297 112.602C49.8006 112.29 49.6079 111.956 49.4516 111.602C49.2954 111.248 49.1756 110.883 49.0975 110.503C49.0193 110.128 48.9777 109.743 48.9777 109.357C48.9777 108.972 49.0193 108.586 49.0975 108.211C49.1756 107.831 49.2954 107.467 49.4516 107.113C49.6079 106.758 49.8006 106.425 50.0297 106.113C50.2537 105.8 50.5141 105.514 50.8006 105.253L62.7589 93.2948C63.9777 92.1698 65.4152 91.5448 67.0714 91.4198C68.6287 91.5032 69.9256 92.1282 70.962 93.2948C71.7016 93.925 72.2277 94.6959 72.5402 95.6177C72.8527 96.5344 72.91 97.4667 72.7068 98.4146C72.6443 98.5604 72.6027 98.7115 72.5766 98.8677C72.2381 99.8677 71.7016 100.748 70.962 101.503L59.0558 113.435ZM77.5766 113.435C77.3162 113.722 77.0297 113.982 76.7172 114.206C76.3995 114.435 76.0662 114.628 75.712 114.784C75.3579 114.946 74.9933 115.066 74.6131 115.144C74.2329 115.227 73.8475 115.264 73.462 115.264C73.0714 115.264 72.6912 115.227 72.311 115.144C71.9308 115.066 71.561 114.946 71.2068 114.784C70.8527 114.628 70.5193 114.435 70.2068 114.206C69.8943 113.982 69.6079 113.722 69.3475 113.435L67.8891 111.982L74.9308 105.227C75.3839 104.774 75.7902 104.279 76.1443 103.748L77.7329 105.331C78.0193 105.597 78.2693 105.889 78.4933 106.206C78.7172 106.524 78.9047 106.863 79.0558 107.222C79.2068 107.581 79.3214 107.951 79.3943 108.331C79.4672 108.711 79.4985 109.097 79.4933 109.482C79.4829 109.873 79.436 110.258 79.3475 110.633C79.2589 111.014 79.1339 111.378 78.9672 111.727C78.8058 112.081 78.6027 112.409 78.3683 112.722C78.1339 113.029 77.8683 113.31 77.5766 113.566V113.435ZM113.53 77.7479C113.275 78.0396 112.988 78.2948 112.67 78.524C112.358 78.7532 112.025 78.9459 111.67 79.1021C111.316 79.2584 110.946 79.3782 110.571 79.4615C110.191 79.5396 109.806 79.5813 109.42 79.5813C109.03 79.5813 108.644 79.5396 108.264 79.4615C107.889 79.3782 107.519 79.2584 107.165 79.1021C106.811 78.9459 106.478 78.7532 106.165 78.524C105.847 78.2948 105.561 78.0396 105.306 77.7479L96.2277 68.6959C95.9829 68.4511 95.6964 68.2584 95.3735 68.1229C95.0454 67.9875 94.712 67.9198 94.3579 67.9198C94.0089 67.9198 93.6704 67.9823 93.3474 68.1177C93.0245 68.2479 92.7381 68.4407 92.4881 68.6854C92.2381 68.9302 92.0454 69.2167 91.9099 69.5396C91.7745 69.8625 91.7068 70.2011 91.7068 70.55C91.7016 70.899 91.7693 71.2375 91.8995 71.5604C92.0349 71.8834 92.2224 72.1698 92.4724 72.4198L101.545 81.4719C101.873 81.7219 102.165 82.0032 102.431 82.3157C102.696 82.6334 102.926 82.9667 103.118 83.3313C103.311 83.6907 103.462 84.0709 103.577 84.4615C103.691 84.8573 103.759 85.2584 103.79 85.6698C103.816 86.0761 103.801 86.4823 103.743 86.8886C103.686 87.2948 103.582 87.6907 103.441 88.0761C103.301 88.4563 103.118 88.8261 102.9 89.1698C102.681 89.5136 102.426 89.8365 102.139 90.1282C101.847 90.4198 101.535 90.6802 101.191 90.9042C100.847 91.1334 100.488 91.3209 100.103 91.4667C99.7224 91.6177 99.3266 91.7271 98.9204 91.7948C98.5193 91.8573 98.1079 91.8834 97.7016 91.8625C97.2902 91.8417 96.8839 91.7792 96.4881 91.675C96.0922 91.5709 95.712 91.425 95.3422 91.2375C94.9777 91.05 94.6339 90.8313 94.3162 90.5709C93.9985 90.3157 93.7068 90.024 93.4516 89.7063L84.3475 80.6282C84.1027 80.3834 83.8162 80.1907 83.4933 80.0604C83.1704 79.925 82.8318 79.8573 82.4829 79.8573C82.1339 79.8573 81.7954 79.925 81.4725 80.0604C81.1495 80.1907 80.8683 80.3834 80.6183 80.6282C80.1027 81.1438 79.8475 81.7688 79.8527 82.5032C79.8475 83.2323 80.1027 83.8573 80.6183 84.3729L89.7172 93.4302C89.9777 93.7011 90.2068 93.9927 90.4047 94.3104C90.6079 94.6282 90.7745 94.9615 90.9099 95.3104C91.0506 95.6594 91.1495 96.0136 91.2172 96.3834C91.2849 96.7532 91.311 97.1229 91.3058 97.4979C91.3006 97.8729 91.2589 98.2427 91.186 98.6073C91.1079 98.9771 90.9933 99.3313 90.8474 99.675C90.7016 100.019 90.5245 100.347 90.3162 100.659C90.1079 100.967 89.8683 101.258 89.6027 101.519C89.337 101.784 89.0506 102.024 88.7381 102.232C88.4256 102.441 88.0974 102.618 87.7537 102.764C87.4099 102.909 87.0506 103.019 86.686 103.097C86.3162 103.175 85.9464 103.217 85.5714 103.222C85.1964 103.227 84.8214 103.196 84.4568 103.128C84.087 103.066 83.7277 102.961 83.3735 102.826C83.0245 102.691 82.6912 102.524 82.3735 102.321C82.061 102.123 81.7641 101.894 81.4933 101.639L78.2641 98.4146C78.436 96.7636 78.2277 95.1594 77.6443 93.6021C77.0558 92.0448 76.1495 90.7063 74.9308 89.5761C73.9464 88.5032 72.7902 87.6698 71.462 87.0709C70.1339 86.4771 68.7381 86.1646 67.285 86.1438H66.3318C66.4516 84.5344 66.212 82.9823 65.6183 81.4823C65.0245 79.9823 64.1339 78.6854 62.9412 77.5917C61.962 76.524 60.811 75.6907 59.4881 75.0917C58.1652 74.4979 56.7745 74.1854 55.3214 74.1594H54.3735C54.4725 72.55 54.2172 70.9927 53.6079 69.4979C52.9933 68.0032 52.0818 66.7167 50.8787 65.6334C49.8839 64.5709 48.7172 63.7479 47.3787 63.1646C46.0402 62.5813 44.6391 62.2896 43.1808 62.2844C42.8527 62.2584 42.5245 62.2584 42.2016 62.2844C42.3266 60.6698 42.0975 59.1125 41.5089 57.6073C40.9204 56.1021 40.0297 54.8052 38.8422 53.7063C37.8579 52.6334 36.7016 51.8 35.3735 51.2011C34.0454 50.6073 32.6495 50.2948 31.1912 50.274C29.686 50.3313 28.2329 50.6594 26.8422 51.2479C25.4516 51.8417 24.212 52.6594 23.1235 53.7063L14.0766 62.9979C11.5297 59.0604 9.58182 54.8469 8.22766 50.3625C6.8787 45.8729 6.18078 41.2844 6.13911 36.6021C6.13911 35.4667 8.17557 8.67503 36.8579 5.93024C50.087 5.32607 56.8839 8.86253 60.4308 11.3417L42.5454 28.6021C42.0089 29.1073 41.5297 29.6594 41.1079 30.2636C40.686 30.8625 40.3266 31.4979 40.035 32.175C39.7433 32.8469 39.5245 33.5448 39.3735 34.2636C39.2277 34.9823 39.1495 35.7115 39.1495 36.4407C39.1495 37.175 39.2277 37.9042 39.3735 38.6229C39.5245 39.3417 39.7433 40.0396 40.035 40.7115C40.3266 41.3886 40.686 42.024 41.1079 42.6229C41.5297 43.2271 42.0089 43.7792 42.5454 44.2844C43.0506 44.8157 43.6027 45.2948 44.2068 45.7167C44.8058 46.1386 45.4464 46.4927 46.1235 46.7844C46.8006 47.0761 47.4985 47.2948 48.2172 47.4459C48.936 47.5917 49.6652 47.6698 50.4047 47.6698C51.1391 47.6698 51.8683 47.5917 52.587 47.4459C53.311 47.2948 54.0089 47.0761 54.6808 46.7844C55.3579 46.4927 55.9985 46.1386 56.5975 45.7167C57.2016 45.2948 57.7537 44.8157 58.2589 44.2844L75.5922 27.0188L113.53 69.7792C113.801 70.0396 114.04 70.3209 114.248 70.6282C114.462 70.9354 114.639 71.2584 114.785 71.6021C114.931 71.9407 115.04 72.2948 115.113 72.6594C115.191 73.024 115.228 73.3938 115.228 73.7636C115.228 74.1386 115.191 74.5032 115.113 74.8677C115.04 75.2323 114.931 75.5865 114.785 75.9302C114.639 76.274 114.462 76.5969 114.248 76.9042C114.04 77.2115 113.801 77.4927 113.53 77.7479Z" fill="black"/>
</svg>
