<svg width="63" height="60" viewBox="0 0 63 60" fill="none" xmlns="http://www.w3.org/2000/svg">
<path d="M57.1588 32.3847L56.2541 31.3649C56.463 31.2807 56.6414 31.1533 56.7841 30.9774C57.0033 30.6918 62.2735 24.0529 62.2735 17.8245C62.2735 17.6689 62.0798 2.06088 44.9517 0.329768C44.6153 0.253284 36.9879 -1.10305 31.2029 3.80474C29.3375 2.33368 25.4919 -0.0705031 17.5688 0.304273C1.21803 1.87987 0.132394 17.5925 0.132394 17.7735C0.117103 20.453 0.504465 23.0764 1.29703 25.6387C2.08704 28.2035 3.24403 30.5898 4.76545 32.7977C4.34751 33.3433 4.02895 33.9424 3.80724 34.5951C3.64669 35.0617 3.55749 35.5435 3.53965 36.0407C3.52181 36.5353 3.57533 37.0222 3.7002 37.5015C3.82508 37.9783 4.01876 38.4296 4.27615 38.8528C4.53609 39.276 4.84955 39.6508 5.21907 39.9822C5.69818 40.5048 6.26393 40.9128 6.91123 41.206C7.55854 41.4966 8.23642 41.6496 8.94744 41.6623H9.42654C9.35773 42.4501 9.46986 43.2099 9.75784 43.9467C10.0484 44.6835 10.4841 45.3158 11.0703 45.8486C11.5519 46.3738 12.1177 46.7817 12.7675 47.0724C13.4174 47.3656 14.1004 47.516 14.8114 47.5262H15.2778C15.2395 48.2987 15.3669 49.0431 15.66 49.757C15.9556 50.4709 16.3889 51.0904 16.9623 51.6105C17.4414 52.1331 18.0046 52.5411 18.6519 52.8317C19.2992 53.1249 19.9796 53.2779 20.6906 53.2906H21.157C21.0984 54.0759 21.2131 54.8382 21.5036 55.5724C21.7941 56.3067 22.2299 56.9415 22.8135 57.4769C23.2926 57.9995 23.8558 58.4075 24.5031 58.6981C25.1529 58.9913 25.8308 59.1417 26.5418 59.1545C27.2834 59.129 27.9944 58.9709 28.6774 58.6828C29.3604 58.3922 29.9695 57.9893 30.5021 57.4769L31.1494 56.8166L31.8757 57.5406C32.3931 58.0531 32.9868 58.4534 33.6596 58.7414C34.3299 59.0295 35.0307 59.1851 35.7595 59.208C36.4731 59.2004 37.1561 59.0499 37.8085 58.7618C38.4609 58.4712 39.0292 58.0658 39.5134 57.5406C40.0944 57.0027 40.5302 56.3653 40.8182 55.6285C41.1062 54.8917 41.2208 54.1294 41.1571 53.3416H41.6235C42.3498 53.3416 43.043 53.1988 43.7081 52.9082C44.3732 52.6175 44.9517 52.2071 45.4436 51.6742C46.0297 51.1439 46.4681 50.5091 46.756 49.7748C47.044 49.038 47.1561 48.2757 47.0873 47.4879C47.4747 47.5032 47.8595 47.4752 48.2443 47.4115C48.6266 47.3452 48.9987 47.2406 49.3605 47.1004C49.7224 46.9576 50.0639 46.7792 50.3901 46.5676C50.7138 46.356 51.0145 46.1138 51.2897 45.8384C51.5649 45.5656 51.8096 45.2673 52.0211 44.9435C52.2352 44.6197 52.4136 44.2756 52.5563 43.9161C52.699 43.5566 52.8035 43.1844 52.8697 42.8019C52.9385 42.4195 52.964 42.0371 52.9513 41.6496C53.7337 41.698 54.4854 41.5756 55.2117 41.285C55.938 40.9918 56.565 40.5584 57.095 39.9822C57.4595 39.6533 57.7678 39.2811 58.0227 38.8604C58.2801 38.4423 58.4686 37.9961 58.5935 37.5245C58.7209 37.0503 58.7745 36.5684 58.7592 36.0789C58.7439 35.5894 58.6598 35.1101 58.5043 34.6461C58.2164 33.7971 57.7678 33.0424 57.1588 32.3847ZM32.1739 6.38994C37.0541 1.60962 44.3936 2.90222 44.5746 2.92771C59.4498 4.38858 59.6843 17.2814 59.6843 17.8245C59.6843 23.1351 54.804 29.2972 54.7632 29.361C54.7148 29.4171 54.6715 29.4782 54.6358 29.542L37.676 10.4589H37.597C37.5842 10.385 37.5511 10.3187 37.495 10.2652H35.9787L35.9022 10.3315L26.3991 19.8258C26.2717 19.9686 26.1315 20.0935 25.9786 20.2057C25.8257 20.3179 25.6626 20.4122 25.4893 20.4887C25.316 20.5652 25.1351 20.6238 24.9491 20.6646C24.763 20.7029 24.577 20.7232 24.3859 20.7232C24.1973 20.7232 24.0087 20.7029 23.8227 20.6646C23.6366 20.6238 23.4582 20.5652 23.2849 20.4887C23.1116 20.4122 22.946 20.3179 22.7931 20.2057C22.6402 20.0935 22.5 19.9686 22.3726 19.8258C22.2324 19.7009 22.1101 19.5607 21.998 19.4077C21.8884 19.2547 21.7967 19.0916 21.7202 18.9182C21.6437 18.7448 21.5851 18.5689 21.5469 18.3828C21.5087 18.1992 21.4883 18.0131 21.4883 17.8245C21.4883 17.6358 21.5087 17.4497 21.5469 17.2661C21.5851 17.08 21.6437 16.9015 21.7202 16.7307C21.7967 16.5574 21.8884 16.3942 21.998 16.2412C22.1101 16.0883 22.2324 15.948 22.3726 15.8206L32.1739 6.38994ZM11.0703 38.1083C10.4714 38.6641 9.76293 38.97 8.94744 39.0261C8.1829 38.993 7.54834 38.687 7.04375 38.1083C6.90359 37.9808 6.77617 37.8432 6.66658 37.6876C6.55445 37.5347 6.46016 37.3715 6.38116 37.2007C6.30471 37.0273 6.24609 36.8463 6.20532 36.6627C6.16709 36.4766 6.1467 36.288 6.1467 36.0993C6.1467 35.9106 6.16709 35.722 6.20532 35.5384C6.24609 35.3523 6.30471 35.1738 6.38116 35.0005C6.46016 34.8271 6.55445 34.6639 6.66658 34.511C6.77617 34.358 6.90359 34.2178 7.04375 34.0903L12.8848 28.2494C13.4811 27.691 14.1896 27.3826 15.0076 27.3214C15.7721 27.3596 16.4118 27.6655 16.9215 28.2366C17.0617 28.3641 17.1865 28.5018 17.2987 28.6548C17.4082 28.8052 17.5025 28.9658 17.579 29.1366C17.658 29.31 17.7166 29.4859 17.7574 29.6695C17.7956 29.853 17.8185 30.0366 17.8185 30.2252C17.8211 30.4139 17.8033 30.5975 17.7676 30.7836C17.7293 30.9672 17.6758 31.1456 17.6019 31.3164C17.528 31.4898 17.4363 31.653 17.3292 31.8059C17.2222 31.9615 17.0999 32.1017 16.9623 32.2292L11.0703 38.1083ZM14.8114 44.867C14.0443 44.8314 13.4047 44.5254 12.8975 43.9492C12.7573 43.8218 12.6325 43.679 12.5229 43.526C12.4108 43.373 12.319 43.2099 12.2426 43.0365C12.1661 42.8631 12.1075 42.6847 12.0693 42.5011C12.031 42.315 12.0107 42.1289 12.0107 41.9402C12.0107 41.7516 12.031 41.5629 12.0693 41.3793C12.1075 41.1932 12.1661 41.0147 12.2426 40.8414C12.319 40.668 12.4108 40.5048 12.5229 40.3519C12.6325 40.1989 12.7573 40.0587 12.8975 39.9312L18.7615 34.0903C19.3502 33.5473 20.0459 33.2413 20.8461 33.1725C21.6106 33.2082 22.2452 33.5141 22.7472 34.0903C22.8899 34.2178 23.0148 34.358 23.1244 34.511C23.2365 34.6639 23.3308 34.8271 23.4073 35.0005C23.4837 35.1738 23.5423 35.3523 23.5806 35.5384C23.6213 35.722 23.6392 35.9106 23.6392 36.0993C23.6392 36.288 23.6213 36.4766 23.5806 36.6602C23.5423 36.8463 23.4837 37.0248 23.4073 37.1981C23.3308 37.3715 23.2365 37.5347 23.1244 37.6876C23.0148 37.8406 22.8899 37.9808 22.7472 38.1083L16.9623 43.9492C16.3506 44.5025 15.6345 44.8084 14.8114 44.867ZM22.788 49.7876C22.1866 50.3434 21.4806 50.6544 20.6651 50.7182C19.8981 50.6799 19.2635 50.3689 18.7615 49.7876C18.6213 49.6601 18.4939 49.5199 18.3843 49.3669C18.2722 49.214 18.1804 49.0508 18.1014 48.8774C18.025 48.7041 17.9689 48.5256 17.9281 48.3395C17.8899 48.1559 17.8695 47.9672 17.8695 47.7786C17.8695 47.5899 17.8899 47.4038 17.9281 47.2177C17.9689 47.0316 18.025 46.8531 18.1014 46.6797C18.1804 46.5064 18.2722 46.3432 18.3843 46.1902C18.4939 46.0373 18.6213 45.897 18.7615 45.7696L24.6127 39.9822C25.2065 39.4264 25.9098 39.1205 26.7228 39.0644C27.4848 39.1026 28.1142 39.4086 28.6137 39.9822C28.7539 40.1097 28.8788 40.2499 28.9909 40.4029C29.1005 40.5558 29.1948 40.719 29.2712 40.8924C29.3477 41.0657 29.4063 41.2442 29.4445 41.4303C29.4853 41.6139 29.5057 41.8025 29.5057 41.9912C29.5057 42.1799 29.4853 42.3685 29.4445 42.5521C29.4063 42.7382 29.3477 42.9167 29.2712 43.09C29.1948 43.2634 29.1005 43.4266 28.9909 43.5795C28.8788 43.7325 28.7539 43.8727 28.6137 44.0002L22.788 49.7876ZM28.6137 55.6285C28.0097 56.1894 27.2987 56.4979 26.4781 56.5591C25.7111 56.5234 25.0765 56.2174 24.5744 55.6413C24.4343 55.5138 24.3069 55.3736 24.1973 55.2206C24.0851 55.0676 23.9909 54.9044 23.9144 54.7311C23.8379 54.5577 23.7793 54.3792 23.7411 54.1931C23.7029 54.0096 23.6825 53.8209 23.6825 53.6322C23.6825 53.4436 23.7029 53.2549 23.7411 53.0714C23.7793 52.8852 23.8379 52.7068 23.9144 52.5334C23.9909 52.36 24.0851 52.1969 24.1973 52.0439C24.3069 51.8909 24.4343 51.7507 24.5744 51.6232L30.4257 45.7696C31.022 45.2189 31.7254 44.9129 32.5358 44.8517C33.2977 44.8925 33.9323 45.1985 34.4394 45.7696C34.8013 46.0781 35.0587 46.4554 35.2116 46.9067C35.3645 47.3554 35.3926 47.8117 35.2932 48.2757C35.2626 48.3471 35.2422 48.4211 35.2295 48.4975C35.0638 48.987 34.8013 49.4179 34.4394 49.7876L28.6137 55.6285ZM37.676 55.6285C37.5485 55.7687 37.4084 55.8962 37.2555 56.0058C37.1 56.118 36.9369 56.2123 36.7636 56.2888C36.5903 56.3679 36.4119 56.4265 36.2259 56.4647C36.0399 56.5055 35.8513 56.5234 35.6627 56.5234C35.4716 56.5234 35.2855 56.5055 35.0995 56.4647C34.9135 56.4265 34.7325 56.3679 34.5592 56.2888C34.3859 56.2123 34.2228 56.118 34.0699 56.0058C33.917 55.8962 33.7769 55.7687 33.6494 55.6285L32.9359 54.9172L36.3814 51.6105C36.6031 51.3887 36.8018 51.1465 36.9751 50.8864L37.7524 51.6615C37.8926 51.7915 38.0149 51.9343 38.1245 52.0898C38.2341 52.2453 38.3258 52.411 38.3997 52.5869C38.4736 52.7629 38.5297 52.9439 38.5654 53.13C38.601 53.3161 38.6163 53.5048 38.6138 53.6934C38.6087 53.8846 38.5858 54.0733 38.5424 54.2569C38.4991 54.443 38.4379 54.6214 38.3564 54.7923C38.2774 54.9656 38.178 55.1263 38.0633 55.2792C37.9486 55.4296 37.8187 55.5673 37.676 55.6922V55.6285ZM55.2678 38.1593C55.1429 38.3021 55.0028 38.427 54.8473 38.5392C54.6944 38.6514 54.5313 38.7457 54.358 38.8222C54.1847 38.8987 54.0038 38.9573 53.8203 38.9981C53.6343 39.0363 53.4457 39.0567 53.2571 39.0567C53.066 39.0567 52.8774 39.0363 52.6913 38.9981C52.5079 38.9573 52.3269 38.8987 52.1536 38.8222C51.9803 38.7457 51.8172 38.6514 51.6643 38.5392C51.5089 38.427 51.3687 38.3021 51.2438 38.1593L46.8019 33.7283C46.6821 33.6084 46.542 33.5141 46.384 33.4478C46.2234 33.3815 46.0603 33.3484 45.887 33.3484C45.7163 33.3484 45.5506 33.379 45.3926 33.4453C45.2346 33.509 45.0945 33.6033 44.9721 33.7232C44.8498 33.843 44.7555 33.9832 44.6893 34.1413C44.623 34.2994 44.5899 34.4651 44.5899 34.6359C44.5873 34.8067 44.6204 34.9724 44.6842 35.1305C44.7504 35.2886 44.8422 35.4288 44.9645 35.5512L49.4039 39.9822C49.5644 40.1046 49.7071 40.2422 49.8371 40.3952C49.9671 40.5507 50.0792 40.7139 50.1735 40.8924C50.2678 41.0683 50.3417 41.2544 50.3978 41.4456C50.4538 41.6394 50.4869 41.8357 50.5022 42.0371C50.515 42.236 50.5073 42.4348 50.4793 42.6337C50.4513 42.8325 50.4003 43.0263 50.3315 43.215C50.2627 43.4011 50.1735 43.5821 50.0665 43.7504C49.9594 43.9186 49.8345 44.0767 49.6944 44.2195C49.5517 44.3622 49.3988 44.4897 49.2306 44.5993C49.0624 44.7115 48.8865 44.8033 48.6979 44.8747C48.5119 44.9486 48.3182 45.0022 48.1194 45.0353C47.9232 45.0659 47.7219 45.0787 47.5231 45.0685C47.3218 45.0583 47.123 45.0277 46.9293 44.9767C46.7356 44.9257 46.5496 44.8543 46.3687 44.7625C46.1903 44.6707 46.0221 44.5637 45.8666 44.4362C45.7112 44.3113 45.5685 44.1685 45.4436 44.013L40.9889 39.5692C40.8691 39.4494 40.729 39.355 40.571 39.2913C40.413 39.225 40.2473 39.1919 40.0766 39.1919C39.9058 39.1919 39.7402 39.225 39.5822 39.2913C39.4242 39.355 39.2866 39.4494 39.1642 39.5692C38.9119 39.8216 38.7871 40.1275 38.7896 40.487C38.7871 40.8439 38.9119 41.1499 39.1642 41.4023L43.6164 45.8359C43.7438 45.9684 43.8559 46.1112 43.9528 46.2667C44.0521 46.4222 44.1337 46.5854 44.2 46.7562C44.2688 46.927 44.3172 47.1004 44.3503 47.2814C44.3834 47.4624 44.3962 47.6435 44.3936 47.827C44.3911 48.0106 44.3707 48.1916 44.335 48.3701C44.2968 48.5511 44.2407 48.7244 44.1694 48.8927C44.098 49.061 44.0114 49.2216 43.9094 49.3746C43.8075 49.525 43.6903 49.6678 43.5603 49.7952C43.4303 49.9253 43.2902 50.0425 43.1373 50.1445C42.9843 50.2465 42.8238 50.3332 42.6556 50.4046C42.4874 50.476 42.3116 50.5295 42.1332 50.5677C41.9522 50.606 41.7713 50.6264 41.5878 50.6289C41.4043 50.6315 41.2208 50.6162 41.0424 50.583C40.8615 50.5524 40.6857 50.5014 40.5124 50.4352C40.3416 50.3689 40.1785 50.2873 40.0231 50.1879C39.8702 50.091 39.7249 49.9788 39.5924 49.8539L38.0124 48.2757C38.0965 47.4675 37.9945 46.6823 37.7091 45.92C37.4211 45.1577 36.9777 44.5025 36.3814 43.9492C35.8997 43.424 35.3339 43.0161 34.6841 42.7229C34.0342 42.4323 33.3513 42.2793 32.6402 42.2691H32.1739C32.2325 41.4813 32.1153 40.7216 31.8247 39.9873C31.5342 39.253 31.0984 38.6182 30.5149 38.0828C30.0357 37.5602 29.4725 37.1522 28.8252 36.8591C28.1779 36.5684 27.4975 36.4154 26.7865 36.4027H26.3227C26.3711 35.6149 26.2462 34.8526 25.9481 34.1209C25.6473 33.3892 25.2014 32.7595 24.6127 32.2292C24.1259 31.7091 23.5551 31.3062 22.9001 31.0207C22.2452 30.7351 21.5596 30.5924 20.8461 30.5898C20.6855 30.5771 20.525 30.5771 20.367 30.5898C20.4281 29.7995 20.316 29.0372 20.028 28.3004C19.7401 27.5636 19.3043 26.9287 18.7232 26.3908C18.2416 25.8656 17.6758 25.4577 17.026 25.1645C16.3761 24.8738 15.6931 24.7209 14.9796 24.7107C14.2431 24.7387 13.5321 24.8993 12.8516 25.1874C12.1712 25.4781 11.5647 25.8783 11.0321 26.3908L6.60542 30.9391C5.35924 29.0117 4.40612 26.9491 3.74353 24.754C3.08348 22.5563 2.74199 20.3102 2.7216 18.0182C2.7216 17.4624 3.71804 4.34779 17.7523 3.0042C24.2253 2.70846 27.551 4.43957 29.2865 5.65313L20.5352 14.1022C20.2727 14.3495 20.0382 14.6197 19.8318 14.9155C19.6254 15.2087 19.4495 15.5197 19.3068 15.8511C19.1641 16.18 19.0571 16.5217 18.9832 16.8735C18.9118 17.2253 18.8736 17.5823 18.8736 17.9392C18.8736 18.2987 18.9118 18.6556 18.9832 19.0074C19.0571 19.3593 19.1641 19.7009 19.3068 20.0298C19.4495 20.3612 19.6254 20.6723 19.8318 20.9655C20.0382 21.2612 20.2727 21.5314 20.5352 21.7787C20.7824 22.0388 21.0525 22.2733 21.3481 22.4799C21.6412 22.6864 21.9547 22.8597 22.286 23.0025C22.6172 23.1453 22.9587 23.2524 23.3104 23.3263C23.6621 23.3977 24.0189 23.4359 24.3808 23.4359C24.7401 23.4359 25.0969 23.3977 25.4486 23.3263C25.8028 23.2524 26.1443 23.1453 26.473 23.0025C26.8043 22.8597 27.1178 22.6864 27.4109 22.4799C27.7065 22.2733 27.9766 22.0388 28.2238 21.7787L36.705 13.3271L55.2678 34.2586C55.4003 34.386 55.5176 34.5237 55.6195 34.6741C55.724 34.8246 55.8106 34.9826 55.882 35.1509C55.9533 35.3166 56.0069 35.49 56.0425 35.6684C56.0808 35.8469 56.0986 36.0279 56.0986 36.2089C56.0986 36.3925 56.0808 36.571 56.0425 36.7494C56.0069 36.9279 55.9533 37.1013 55.882 37.2695C55.8106 37.4378 55.724 37.5959 55.6195 37.7463C55.5176 37.8967 55.4003 38.0344 55.2678 38.1593Z" fill="#254A75"/>
</svg>
