<svg width="127" height="121" viewBox="0 0 127 121" fill="none" xmlns="http://www.w3.org/2000/svg">
<path d="M116.548 65.9511L114.699 63.8677C115.126 63.6959 115.49 63.4354 115.782 63.0761C116.23 62.4927 127.001 48.9302 127.001 36.2063C127.001 35.8886 126.605 4.00316 91.5998 0.466696C90.9123 0.310447 75.3238 -2.46039 63.5009 7.56565C59.6884 4.56045 51.829 -0.351011 35.6363 0.414613C2.21964 3.63336 0.000890033 35.7323 0.000890033 36.1021C-0.0303606 41.5761 0.761306 46.9354 2.3811 52.1698C3.99568 57.4094 6.36027 62.2844 9.46964 66.7948C8.61548 67.9094 7.96443 69.1334 7.51131 70.4667C7.18318 71.4198 7.00089 72.4042 6.96443 73.4198C6.92797 74.4302 7.03735 75.425 7.29256 76.4042C7.54776 77.3782 7.9436 78.3 8.46964 79.1646C9.00089 80.0292 9.64152 80.7948 10.3967 81.4719C11.3759 82.5396 12.5321 83.3729 13.8551 83.9719C15.178 84.5657 16.5634 84.8782 18.0165 84.9042H18.9957C18.8551 86.5136 19.0842 88.0657 19.6728 89.5709C20.2665 91.0761 21.1571 92.3677 22.3551 93.4563C23.3394 94.5292 24.4957 95.3625 25.8238 95.9563C27.1519 96.5552 28.5478 96.8625 30.0009 96.8834H30.954C30.8759 98.4615 31.1363 99.9823 31.7353 101.441C32.3394 102.899 33.2248 104.165 34.3967 105.227C35.3759 106.295 36.5269 107.128 37.8498 107.722C39.1728 108.321 40.5634 108.633 42.0165 108.659H42.9696C42.8499 110.264 43.0842 111.821 43.678 113.321C44.2717 114.821 45.1624 116.118 46.3551 117.211C47.3342 118.279 48.4853 119.113 49.8082 119.706C51.1363 120.305 52.5217 120.613 53.9749 120.639C55.4905 120.586 56.9436 120.264 58.3394 119.675C59.7353 119.081 60.9801 118.258 62.0686 117.211L63.3915 115.863L64.8759 117.342C65.9332 118.389 67.1467 119.206 68.5217 119.795C69.8915 120.383 71.3238 120.701 72.8134 120.748C74.2717 120.732 75.6676 120.425 77.0009 119.836C78.3342 119.243 79.4957 118.415 80.4853 117.342C81.6728 116.243 82.5634 114.941 83.1519 113.435C83.7405 111.93 83.9749 110.373 83.8446 108.764H84.7978C86.2821 108.764 87.6988 108.472 89.0582 107.878C90.4176 107.284 91.5998 106.446 92.6051 105.357C93.803 104.274 94.6988 102.977 95.2873 101.477C95.8759 99.9719 96.1051 98.4146 95.9644 96.8052C96.7561 96.8365 97.5426 96.7792 98.329 96.649C99.1103 96.5136 99.8707 96.3 100.61 96.0136C101.35 95.7219 102.048 95.3573 102.714 94.925C103.376 94.4927 103.99 93.9979 104.553 93.4354C105.115 92.8782 105.615 92.2688 106.048 91.6073C106.485 90.9459 106.85 90.2427 107.142 89.5084C107.433 88.774 107.647 88.0136 107.782 87.2323C107.923 86.4511 107.975 85.6698 107.949 84.8782C109.548 84.9771 111.084 84.7271 112.569 84.1334C114.053 83.5344 115.334 82.649 116.418 81.4719C117.162 80.8 117.793 80.0396 118.313 79.1802C118.839 78.3261 119.225 77.4146 119.48 76.4511C119.74 75.4823 119.85 74.4979 119.819 73.4979C119.787 72.4979 119.615 71.5188 119.298 70.5709C118.709 68.8365 117.793 67.2948 116.548 65.9511ZM65.4853 12.8469C75.4592 3.08128 90.4592 5.7219 90.829 5.77399C121.23 8.75836 121.709 35.0969 121.709 36.2063C121.709 47.0552 111.735 59.6438 111.652 59.774C111.553 59.8886 111.464 60.0136 111.392 60.1438L76.7301 21.1594H76.5686C76.5426 21.0084 76.4749 20.8729 76.3603 20.7636H73.2613L73.1051 20.899L53.6832 40.2948C53.4228 40.5865 53.1363 40.8417 52.8238 41.0709C52.5113 41.3 52.178 41.4927 51.8238 41.649C51.4696 41.8052 51.0999 41.925 50.7196 42.0084C50.3394 42.0865 49.9592 42.1282 49.5686 42.1282C49.1832 42.1282 48.7978 42.0865 48.4176 42.0084C48.0374 41.925 47.6728 41.8052 47.3186 41.649C46.9644 41.4927 46.6259 41.3 46.3134 41.0709C46.0009 40.8417 45.7144 40.5865 45.454 40.2948C45.1676 40.0396 44.9176 39.7532 44.6884 39.4407C44.4644 39.1282 44.2769 38.7948 44.1207 38.4407C43.9644 38.0865 43.8446 37.7271 43.7665 37.3469C43.6884 36.9719 43.6467 36.5917 43.6467 36.2063C43.6467 35.8209 43.6884 35.4407 43.7665 35.0657C43.8446 34.6854 43.9644 34.3209 44.1207 33.9719C44.2769 33.6177 44.4644 33.2844 44.6884 32.9719C44.9176 32.6594 45.1676 32.3729 45.454 32.1125L65.4853 12.8469ZM22.3551 77.6438C21.1311 78.7792 19.6832 79.4042 18.0165 79.5188C16.454 79.4511 15.1571 78.8261 14.1259 77.6438C13.8394 77.3834 13.579 77.1021 13.3551 76.7844C13.1259 76.4719 12.9332 76.1386 12.7717 75.7896C12.6155 75.4354 12.4957 75.0657 12.4123 74.6907C12.3342 74.3104 12.2926 73.925 12.2926 73.5396C12.2926 73.1542 12.3342 72.7688 12.4123 72.3938C12.4957 72.0136 12.6155 71.649 12.7717 71.2948C12.9332 70.9407 13.1259 70.6073 13.3551 70.2948C13.579 69.9823 13.8394 69.6959 14.1259 69.4354L26.0634 57.5032C27.2821 56.3625 28.7301 55.7323 30.4019 55.6073C31.9644 55.6854 33.2717 56.3104 34.3134 57.4771C34.5998 57.7375 34.8551 58.0188 35.0842 58.3313C35.3082 58.6386 35.5009 58.9667 35.6571 59.3157C35.8186 59.6698 35.9384 60.0292 36.0217 60.4042C36.0998 60.7792 36.1467 61.1542 36.1467 61.5396C36.1519 61.925 36.1155 62.3 36.0426 62.6802C35.9644 63.0552 35.8551 63.4198 35.704 63.7688C35.553 64.1229 35.3655 64.4563 35.1467 64.7688C34.928 65.0865 34.678 65.3729 34.3967 65.6334L22.3551 77.6438ZM30.0009 91.4511C28.4332 91.3782 27.1259 90.7532 26.0894 89.5761C25.803 89.3157 25.5478 89.024 25.3238 88.7115C25.0946 88.399 24.9071 88.0657 24.7509 87.7115C24.5946 87.3573 24.4748 86.9927 24.3967 86.6177C24.3186 86.2375 24.2769 85.8573 24.2769 85.4719C24.2769 85.0865 24.3186 84.7011 24.3967 84.3261C24.4748 83.9459 24.5946 83.5813 24.7509 83.2271C24.9071 82.8729 25.0946 82.5396 25.3238 82.2271C25.5478 81.9146 25.803 81.6282 26.0894 81.3677L38.0738 69.4354C39.2769 68.3261 40.6988 67.7011 42.3342 67.5604C43.8967 67.6334 45.1936 68.2584 46.2196 69.4354C46.5113 69.6959 46.7665 69.9823 46.9905 70.2948C47.2196 70.6073 47.4124 70.9407 47.5686 71.2948C47.7249 71.649 47.8446 72.0136 47.9228 72.3938C48.0061 72.7688 48.0426 73.1542 48.0426 73.5396C48.0426 73.925 48.0061 74.3104 47.9228 74.6854C47.8446 75.0657 47.7249 75.4302 47.5686 75.7844C47.4124 76.1386 47.2196 76.4719 46.9905 76.7844C46.7665 77.0969 46.5113 77.3834 46.2196 77.6438L34.3967 89.5761C33.1467 90.7063 31.6832 91.3313 30.0009 91.4511ZM46.303 101.503C45.0738 102.639 43.6311 103.274 41.9644 103.404C40.3967 103.326 39.0998 102.691 38.0738 101.503C37.7873 101.243 37.5269 100.956 37.303 100.644C37.0738 100.331 36.8863 99.9979 36.7248 99.6438C36.5686 99.2896 36.454 98.925 36.3707 98.5448C36.2926 98.1698 36.2509 97.7844 36.2509 97.399C36.2509 97.0136 36.2926 96.6334 36.3707 96.2532C36.454 95.8729 36.5686 95.5084 36.7248 95.1542C36.8863 94.8 37.0738 94.4667 37.303 94.1542C37.5269 93.8417 37.7873 93.5552 38.0738 93.2948L50.0321 81.4719C51.2457 80.3365 52.6832 79.7115 54.3446 79.5969C55.9019 79.675 57.1884 80.3 58.2092 81.4719C58.4957 81.7323 58.7509 82.0188 58.9801 82.3313C59.204 82.6438 59.3967 82.9771 59.553 83.3313C59.7092 83.6854 59.829 84.05 59.9071 84.4302C59.9905 84.8052 60.0321 85.1907 60.0321 85.5761C60.0321 85.9615 59.9905 86.3469 59.9071 86.7219C59.829 87.1021 59.7092 87.4667 59.553 87.8209C59.3967 88.175 59.204 88.5084 58.9801 88.8209C58.7509 89.1334 58.4957 89.4198 58.2092 89.6802L46.303 101.503ZM58.2092 113.435C56.9749 114.581 55.5217 115.211 53.8446 115.336C52.2769 115.264 50.9801 114.639 49.954 113.461C49.6676 113.201 49.4071 112.915 49.1832 112.602C48.954 112.29 48.7613 111.956 48.6051 111.602C48.4488 111.248 48.329 110.883 48.2509 110.503C48.1728 110.128 48.1311 109.743 48.1311 109.357C48.1311 108.972 48.1728 108.586 48.2509 108.211C48.329 107.831 48.4488 107.467 48.6051 107.113C48.7613 106.758 48.954 106.425 49.1832 106.113C49.4071 105.8 49.6676 105.514 49.954 105.253L61.9124 93.2948C63.1311 92.1698 64.5686 91.5448 66.2249 91.4198C67.7821 91.5032 69.079 92.1282 70.1155 93.2948C70.8551 93.925 71.3811 94.6959 71.6936 95.6177C72.0061 96.5344 72.0634 97.4667 71.8603 98.4146C71.7978 98.5604 71.7561 98.7115 71.7301 98.8677C71.3915 99.8677 70.8551 100.748 70.1155 101.503L58.2092 113.435ZM76.7301 113.435C76.4696 113.722 76.1832 113.982 75.8707 114.206C75.553 114.435 75.2196 114.628 74.8655 114.784C74.5113 114.946 74.1467 115.066 73.7665 115.144C73.3863 115.227 73.0009 115.264 72.6155 115.264C72.2249 115.264 71.8446 115.227 71.4644 115.144C71.0842 115.066 70.7144 114.946 70.3603 114.784C70.0061 114.628 69.6728 114.435 69.3603 114.206C69.0478 113.982 68.7613 113.722 68.5009 113.435L67.0426 111.982L74.0842 105.227C74.5374 104.774 74.9436 104.279 75.2978 103.748L76.8863 105.331C77.1728 105.597 77.4228 105.889 77.6467 106.206C77.8707 106.524 78.0582 106.863 78.2092 107.222C78.3603 107.581 78.4749 107.951 78.5478 108.331C78.6207 108.711 78.6519 109.097 78.6467 109.482C78.6363 109.873 78.5894 110.258 78.5009 110.633C78.4124 111.014 78.2874 111.378 78.1207 111.727C77.9592 112.081 77.7561 112.409 77.5217 112.722C77.2874 113.029 77.0217 113.31 76.7301 113.566V113.435ZM112.683 77.7479C112.428 78.0396 112.142 78.2948 111.824 78.524C111.511 78.7532 111.178 78.9459 110.824 79.1021C110.47 79.2584 110.1 79.3782 109.725 79.4615C109.345 79.5396 108.959 79.5813 108.574 79.5813C108.183 79.5813 107.798 79.5396 107.418 79.4615C107.043 79.3782 106.673 79.2584 106.319 79.1021C105.964 78.9459 105.631 78.7532 105.319 78.524C105.001 78.2948 104.714 78.0396 104.459 77.7479L95.3811 68.6959C95.1363 68.4511 94.8498 68.2584 94.5269 68.1229C94.1988 67.9875 93.8655 67.9198 93.5113 67.9198C93.1623 67.9198 92.8238 67.9823 92.5009 68.1177C92.178 68.2479 91.8915 68.4407 91.6415 68.6854C91.3915 68.9302 91.1988 69.2167 91.0634 69.5396C90.928 69.8625 90.8603 70.2011 90.8603 70.55C90.8551 70.899 90.9228 71.2375 91.053 71.5604C91.1884 71.8834 91.3759 72.1698 91.6259 72.4198L100.699 81.4719C101.027 81.7219 101.319 82.0032 101.584 82.3157C101.85 82.6334 102.079 82.9667 102.272 83.3313C102.464 83.6907 102.615 84.0709 102.73 84.4615C102.845 84.8573 102.912 85.2584 102.944 85.6698C102.97 86.0761 102.954 86.4823 102.897 86.8886C102.839 87.2948 102.735 87.6907 102.595 88.0761C102.454 88.4563 102.272 88.8261 102.053 89.1698C101.834 89.5136 101.579 89.8365 101.293 90.1282C101.001 90.4198 100.688 90.6802 100.345 90.9042C100.001 91.1334 99.6415 91.3209 99.2561 91.4667C98.8759 91.6177 98.4801 91.7271 98.0738 91.7948C97.6728 91.8573 97.2613 91.8834 96.8551 91.8625C96.4436 91.8417 96.0373 91.7792 95.6415 91.675C95.2457 91.5709 94.8655 91.425 94.4957 91.2375C94.1311 91.05 93.7873 90.8313 93.4696 90.5709C93.1519 90.3157 92.8603 90.024 92.6051 89.7063L83.5009 80.6282C83.2561 80.3834 82.9696 80.1907 82.6467 80.0604C82.3238 79.925 81.9853 79.8573 81.6363 79.8573C81.2874 79.8573 80.9488 79.925 80.6259 80.0604C80.303 80.1907 80.0217 80.3834 79.7717 80.6282C79.2561 81.1438 79.0009 81.7688 79.0061 82.5032C79.0009 83.2323 79.2561 83.8573 79.7717 84.3729L88.8707 93.4302C89.1311 93.7011 89.3603 93.9927 89.5582 94.3104C89.7613 94.6282 89.928 94.9615 90.0634 95.3104C90.204 95.6594 90.303 96.0136 90.3707 96.3834C90.4384 96.7532 90.4644 97.1229 90.4592 97.4979C90.454 97.8729 90.4123 98.2427 90.3394 98.6073C90.2613 98.9771 90.1467 99.3313 90.0009 99.675C89.8551 100.019 89.678 100.347 89.4696 100.659C89.2613 100.967 89.0217 101.258 88.7561 101.519C88.4905 101.784 88.204 102.024 87.8915 102.232C87.579 102.441 87.2509 102.618 86.9071 102.764C86.5634 102.909 86.204 103.019 85.8394 103.097C85.4696 103.175 85.0999 103.217 84.7249 103.222C84.3499 103.227 83.9749 103.196 83.6103 103.128C83.2405 103.066 82.8811 102.961 82.5269 102.826C82.178 102.691 81.8446 102.524 81.5269 102.321C81.2144 102.123 80.9176 101.894 80.6467 101.639L77.4176 98.4146C77.5894 96.7636 77.3811 95.1594 76.7978 93.6021C76.2092 92.0448 75.303 90.7063 74.0842 89.5761C73.0999 88.5032 71.9436 87.6698 70.6155 87.0709C69.2874 86.4771 67.8915 86.1646 66.4384 86.1438H65.4853C65.6051 84.5344 65.3655 82.9823 64.7717 81.4823C64.178 79.9823 63.2874 78.6854 62.0946 77.5917C61.1155 76.524 59.9644 75.6907 58.6415 75.0917C57.3186 74.4979 55.928 74.1854 54.4749 74.1594H53.5269C53.6259 72.55 53.3707 70.9927 52.7613 69.4979C52.1467 68.0032 51.2353 66.7167 50.0321 65.6334C49.0373 64.5709 47.8707 63.7479 46.5321 63.1646C45.1936 62.5813 43.7926 62.2896 42.3342 62.2844C42.0061 62.2584 41.678 62.2584 41.3551 62.2844C41.4801 60.6698 41.2509 59.1125 40.6623 57.6073C40.0738 56.1021 39.1832 54.8052 37.9957 53.7063C37.0113 52.6334 35.8551 51.8 34.5269 51.2011C33.1988 50.6073 31.803 50.2948 30.3446 50.274C28.8394 50.3313 27.3863 50.6594 25.9957 51.2479C24.6051 51.8417 23.3655 52.6594 22.2769 53.7063L13.2301 62.9979C10.6832 59.0604 8.73527 54.8469 7.3811 50.3625C6.03214 45.8729 5.33422 41.2844 5.29256 36.6021C5.29256 35.4667 7.32902 8.67503 36.0113 5.93024C49.2405 5.32607 56.0374 8.86253 59.5842 11.3417L41.6988 28.6021C41.1623 29.1073 40.6832 29.6594 40.2613 30.2636C39.8394 30.8625 39.4801 31.4979 39.1884 32.175C38.8967 32.8469 38.678 33.5448 38.5269 34.2636C38.3811 34.9823 38.303 35.7115 38.303 36.4407C38.303 37.175 38.3811 37.9042 38.5269 38.6229C38.678 39.3417 38.8967 40.0396 39.1884 40.7115C39.4801 41.3886 39.8394 42.024 40.2613 42.6229C40.6832 43.2271 41.1623 43.7792 41.6988 44.2844C42.204 44.8157 42.7561 45.2948 43.3603 45.7167C43.9592 46.1386 44.5999 46.4927 45.2769 46.7844C45.954 47.0761 46.6519 47.2948 47.3707 47.4459C48.0894 47.5917 48.8186 47.6698 49.5582 47.6698C50.2926 47.6698 51.0217 47.5917 51.7405 47.4459C52.4644 47.2948 53.1624 47.0761 53.8342 46.7844C54.5113 46.4927 55.1519 46.1386 55.7509 45.7167C56.3551 45.2948 56.9071 44.8157 57.4124 44.2844L74.7457 27.0188L112.683 69.7792C112.954 70.0396 113.194 70.3209 113.402 70.6282C113.615 70.9354 113.793 71.2584 113.938 71.6021C114.084 71.9407 114.194 72.2948 114.267 72.6594C114.345 73.024 114.381 73.3938 114.381 73.7636C114.381 74.1386 114.345 74.5032 114.267 74.8677C114.194 75.2323 114.084 75.5865 113.938 75.9302C113.793 76.274 113.615 76.5969 113.402 76.9042C113.194 77.2115 112.954 77.4927 112.683 77.7479Z" fill="white"/>
</svg>
